<?xml version="1.0" encoding="UTF-8" standalone="no"?>
<!-- Created with Inkscape (http://www.inkscape.org/) -->

<svg
   width="210mm"
   height="297mm"
   viewBox="0 0 210 297"
   version="1.1"
   id="svg1"
   xml:space="preserve"
   inkscape:version="1.4.3 (0d15f75, 2025-12-25)"
   sodipodi:docname="drawing.svg"
   xmlns:inkscape="http://www.inkscape.org/namespaces/inkscape"
   xmlns:sodipodi="http://sodipodi.sourceforge.net/DTD/sodipodi-0.dtd"
   xmlns="http://www.w3.org/2000/svg"
   xmlns:svg="http://www.w3.org/2000/svg"><sodipodi:namedview
     id="namedview1"
     pagecolor="#505050"
     bordercolor="#eeeeee"
     borderopacity="1"
     inkscape:showpageshadow="0"
     inkscape:pageopacity="0"
     inkscape:pagecheckerboard="0"
     inkscape:deskcolor="#505050"
     inkscape:document-units="mm"
     inkscape:zoom="1.0771772"
     inkscape:cx="424.25703"
     inkscape:cy="616.89015"
     inkscape:window-width="1920"
     inkscape:window-height="1057"
     inkscape:window-x="-8"
     inkscape:window-y="-8"
     inkscape:window-maximized="1"
     inkscape:current-layer="layer1" /><defs
     id="defs1" /><g
     inkscape:label="Layer 1"
     inkscape:groupmode="layer"
     id="layer1"><path
       id="path1"
       style="fill:#000000"
       d="m 112.12545,79.076651 -4.06642,0.07338 -4.06642,0.07338 0.0827,2.380216 c 0.0454,1.308926 0.1286,2.454388 0.185,2.546098 0.0941,0.15229 7.28432,-0.0109 7.47035,-0.169498 0.0448,-0.03821 0.15213,-1.156724 0.23823,-2.486154 z m -0.87334,6.236314 c -0.21828,0.002 -1.79586,0.10302 -3.50573,0.22427 l -3.10885,0.22066 v 0.90744 0.906922 l 1.65365,-0.162262 c 0.9095,-0.0892 2.48708,-0.24127 3.50573,-0.33797 1.84208,-0.17492 1.85208,-0.17985 1.85208,-0.96945 0,-0.53098 -0.1314,-0.79261 -0.39688,-0.78961 z m 0.57155,2.434992 -3.39256,0.19327 c -1.86585,0.1063 -3.48275,0.24909 -3.59307,0.31729 -0.11028,0.0682 -0.2005,0.47431 -0.2005,0.90228 0,0.88773 -0.12919,0.85974 2.42828,0.52244 1.06556,-0.14054 2.53266,-0.29828 3.26026,-0.35088 1.22605,-0.0886 1.32935,-0.15 1.41025,-0.83974 z m -0.83251,2.12132 c -0.58376,-0.0264 -1.63891,0.10198 -3.57549,0.36742 -2.82653,0.38743 -2.77813,0.36541 -2.77813,1.28157 0,0.70019 0.0924,0.8013 0.7276,0.7953 0.40018,-0.004 1.20386,-0.11499 1.78594,-0.24753 0.58209,-0.13254 1.77271,-0.31949 2.64584,-0.41599 1.82156,-0.20133 2.06278,-0.35291 1.94045,-1.2175 -0.0503,-0.35536 -0.16246,-0.53685 -0.74621,-0.56327 z m 0.0661,2.32957 c -0.42217,0.006 -1.32441,0.15473 -3.70778,0.54829 -2.69968,0.44579 -2.71198,0.45103 -2.71198,1.20096 0,0.90629 -0.0413,0.90308 3.88917,0.29714 2.74496,-0.42317 2.97434,-0.50403 3.12384,-1.09967 0.091,-0.36258 0.0321,-0.72278 -0.13539,-0.82631 -0.12382,-0.0765 -0.20455,-0.12412 -0.45786,-0.12041 z m 0.32763,2.61328 c -1.44058,0.0346 -6.62449,0.77593 -6.78098,1.01596 -0.0913,0.14005 -0.10792,0.47954 -0.0351,0.75447 0.15107,0.5777 0.24794,0.58128 4.03335,0.14573 2.65641,-0.30565 2.78435,-0.34944 3.02565,-1.03559 0.13856,-0.39406 0.19259,-0.77583 0.11989,-0.84853 -0.0274,-0.0274 -0.15697,-0.037 -0.36277,-0.032 z m -67.45015,1.03094 c -0.03738,-8.9e-4 -0.06207,0.004 -0.07235,0.014 -0.194859,0.19486 2.869881,7.926893 4.156335,10.486193 0.548607,1.0914 1.219004,2.17835 1.489832,2.41587 0.354062,0.31051 1.496058,0.52251 4.064351,0.75448 1.964531,0.17744 3.649001,0.36986 3.743441,0.42736 0.250848,0.15269 8.792812,0.8303 14.909684,1.18288 2.910417,0.16776 9.935104,0.38139 15.610417,0.47439 5.675312,0.0929 11.092659,0.16898 12.038539,0.16898 h 1.719791 l 0.0775,-1.91048 c 0.0867,-2.13525 0.33832,-1.87767 -2.316661,-2.36885 -0.97791,-0.18092 -1.30585,-0.40501 -1.908923,-1.30328 l -0.728121,-1.08469 -3.779614,-0.18448 c -7.661366,-0.37436 -20.650804,-1.92409 -28.253573,-3.37085 -5.536379,-1.05353 -14.611051,-3.514233 -18.605066,-5.044663 -0.99545,-0.38144 -1.883956,-0.65052 -2.145605,-0.65681 z m 128.03457,0.007 c -0.31842,0.009 -1.73399,0.44482 -3.35587,1.03922 -6.25354,2.29184 -14.53914,4.363623 -22.03948,5.510783 -8.95532,1.36969 -16.78161,2.21259 -23.33708,2.51302 l -4.02249,0.18397 -0.25632,0.73587 c -0.34776,0.99758 -1.18415,1.48898 -3.21582,1.89084 l -1.71204,0.339 -0.0775,1.92133 -0.078,1.92185 8.41241,-0.14987 c 15.4412,-0.27511 30.70039,-1.07843 37.55378,-1.97714 2.20363,-0.28897 4.44406,-0.52554 4.97851,-0.52554 0.53446,0 1.20626,-0.12564 1.49293,-0.27906 0.596,-0.31897 1.74612,-2.68608 3.52847,-7.26157 0.68025,-1.746253 1.48875,-3.740463 1.79627,-4.431263 0.30756,-0.6908 0.48521,-1.32967 0.39481,-1.42007 -0.008,-0.009 -0.0296,-0.0123 -0.0625,-0.0114 z m -60.45264,1.4578 -2.97657,0.17156 c -3.69538,0.21286 -3.9026,0.26974 -3.9026,1.07591 v 0.64388 h 3.43958 3.43959 v -0.94564 z m 0.0222,2.817403 -3.38429,0.0439 c -1.8615,0.0243 -3.48884,0.054 -3.6158,0.0661 -0.12696,0.0121 -0.0728,0.21224 0.11989,0.44442 0.25923,0.31236 0.61139,0.38038 1.35495,0.26148 1.7456,-0.27913 1.19518,0.32555 -0.91312,1.00304 -0.25466,0.0818 -0.46302,0.32138 -0.46302,0.53227 0,0.32053 0.50961,0.36142 3.10885,0.25115 3.45541,-0.1466 3.88333,-0.22147 3.62769,-0.63511 -0.10877,-0.176 -0.57123,-0.21812 -1.20768,-0.11059 -0.66401,0.11218 -1.03094,0.0731 -1.03094,-0.10903 0,-0.33195 1.03532,-0.63427 1.75028,-0.51108 0.36378,0.0627 0.51927,-0.0925 0.57567,-0.57516 z m -3.74189,0.92604 c 0.15411,0 0.28008,0.11907 0.28008,0.26459 0,0.14552 -0.0526,0.26458 -0.11679,0.26458 -0.0642,0 -0.19018,-0.11906 -0.28008,-0.26458 -0.0899,-0.14552 -0.0373,-0.26459 0.11679,-0.26459 z m -7.06934,3.13004 c -1.243491,0.0429 -1.546591,0.13871 -1.576651,0.31058 -0.14536,0.83112 0.4432,1.16592 2.624651,1.49241 2.64408,0.39573 12.58198,0.29045 14.01103,-0.14831 0.87624,-0.26903 1.53263,-1.16441 1.06298,-1.45004 -0.0955,-0.0581 -4.10092,-0.1469 -8.90126,-0.1974 -3.79287,-0.0399 -5.97721,-0.0546 -7.22075,-0.007 z m 3.81631,3.30058 c -0.24874,0.0954 -0.41706,2.18063 -0.6594,8.15971 -0.86459,21.33148 -1.23487,31.90872 -1.63349,46.66071 -0.15729,5.82084 -0.38533,12.36928 -0.50694,14.55209 -0.1216,2.18281 -0.16686,4.02727 -0.0992,4.09897 0.0672,0.0717 1.37476,-1.20825 2.90525,-2.84427 1.53049,-1.63602 2.92035,-2.97446 3.0887,-2.97449 0.22989,-5e-5 0.28744,4.61416 0.23254,18.4397 h 5.2e-4 c -0.0403,10.14186 -0.004,18.37062 0.0801,18.28622 0.0844,-0.0844 0.42546,-1.32786 0.75757,-2.76314 0.67049,-2.89764 4.72067,-17.44989 5.34748,-19.2133 0.2196,-0.61782 1.11275,-3.62375 1.98489,-6.67969 0.87215,-3.05594 1.75865,-6.00548 1.96991,-6.55412 0.64722,-1.68091 0.50581,-1.99897 -0.47594,-1.07229 -0.47294,0.44642 -1.6338,1.36748 -2.57969,2.0469 l -1.71979,1.23507 -0.18655,-7.35304 c -0.10257,-4.04409 -0.333,-16.04409 -0.51212,-26.66711 -0.17911,-10.62302 -0.3928,-23.30318 -0.4749,-28.17812 l -0.14935,-8.86354 -3.51761,-0.22221 c -1.93472,-0.1221 -3.6682,-0.16565 -3.85196,-0.094 z m 56.44926,3.94394 c -0.11196,-0.002 -0.26382,0.0236 -0.4625,0.0749 -0.40018,0.10345 -1.73963,0.28439 -2.97656,0.40205 -13.42453,1.27699 -18.26768,1.53874 -32.62023,1.76371 -5.93576,0.093 -10.82821,0.23966 -10.87221,0.32556 -0.044,0.0859 -0.0259,1.01928 0.0403,2.0743 l 0.12041,1.91823 14.19138,-0.0176 c 14.65261,-0.0178 28.15764,-0.30972 28.90624,-0.62529 0.63659,-0.26834 3.92461,-5.00792 3.93361,-5.66994 0.002,-0.16357 -0.0738,-0.24277 -0.26045,-0.24598 z m -106.043142,0.21188 c -0.421008,0.0299 2.597508,4.49483 3.629236,5.36298 l 0.81442,0.68523 6.401677,0.0248 c 3.520965,0.0136 6.458213,0.0808 6.526733,0.14935 0.06852,0.0686 6.637907,0.12454 14.599109,0.12454 h 14.475087 l 0.16537,-0.82683 c 0.091,-0.45474 0.16536,-1.38828 0.16536,-2.07429 v -1.24695 l -10.914065,-0.18345 c -12.118686,-0.20342 -21.917376,-0.6862 -30.096354,-1.48312 -2.983177,-0.29067 -5.575751,-0.53026 -5.761405,-0.53226 -0.0018,-2e-5 -0.0035,-1.2e-4 -0.0052,0 z m 9.729122,8.20828 c -0.267643,0.0126 -0.253668,0.13138 -0.133842,0.41755 1.753471,4.18761 4.091613,16.1972 4.908227,25.21034 0.3209,3.54184 0.272615,3.71842 -1.014408,3.72742 -1.137871,0.008 -3.441131,1.32817 -4.637443,2.65876 -0.645369,0.7178 -1.469348,2.04525 -1.831413,2.9502 l -0.658357,1.64538 -1.686719,0.0212 c -2.554213,0.0322 -4.331562,1.03303 -6.587195,3.70882 -2.388158,2.833 -3.066958,3.43953 -4.613155,4.12326 -1.571368,0.69485 -3.733745,0.73774 -5.452381,0.108 -2.041809,-0.74815 -2.099613,-0.75533 -2.099613,-0.2651 0,1.04292 1.630315,3.82842 2.918685,4.98678 2.12095,1.90691 3.427259,2.42612 6.077148,2.41432 1.839153,-0.008 2.694111,-0.16636 4.691187,-0.86661 1.665082,-0.58384 2.675264,-0.80182 3.175,-0.68523 0.403112,0.094 1.79843,0.88788 3.101103,1.76423 2.864086,1.92676 4.463228,2.65748 7.464143,3.41013 l 2.282548,0.57257 -0.157613,2.93419 c -0.243267,4.52958 -1.620327,13.0833 -2.414323,14.99702 -0.15732,0.37915 0.726331,0.42515 8.965861,0.46715 8.577848,0.0438 9.140048,0.0179 9.139494,-0.42064 -3.24e-4,-0.25699 -0.181853,-2.2531 -0.403593,-4.43591 -0.811142,-7.98488 -1.213096,-15.29558 -0.853178,-15.52411 0.50498,-0.32063 1.26305,-0.25849 1.365292,0.11213 0.165525,0.6 1.246884,12.69836 1.44849,16.20573 0.100671,1.75137 0.238475,3.05481 0.319361,3.06545 0.0061,-2e-5 0.01268,-0.007 0.01809,-0.0227 0.07689,-0.21828 0.474255,-1.4089 0.883151,-2.64583 0.408895,-1.23693 1.327532,-3.72653 2.041219,-5.53248 0.713687,-1.80595 1.837859,-4.90157 2.498038,-6.87917 0.660178,-1.97759 1.947355,-5.56017 2.860808,-7.96127 2.515037,-6.611 3.792038,-10.75091 3.958418,-12.83229 0.0814,-1.01865 0.27051,-5.3049 0.42013,-9.525 0.4576,-12.90656 0.78839,-20.31693 0.96118,-21.53512 0.19313,-1.36154 -0.28285,-1.32752 -0.58291,0.0408 -0.10329,0.47127 -0.57714,1.74977 -1.053171,2.84117 -0.47602,1.09141 -2.548872,6.68734 -4.606435,12.43541 -4.410379,12.32098 -4.303856,12.03307 -5.365564,14.48697 -0.827578,1.91276 -0.831855,1.91703 -1.377177,1.41852 -0.890441,-0.814 -2.564773,-1.54603 -4.330485,-1.89342 -0.90947,-0.17892 -1.721591,-0.43474 -1.804541,-0.56896 -0.08295,-0.13422 -0.259248,-1.51718 -0.391707,-3.0732 -0.347465,-4.08175 -1.187238,-10.57676 -2.367297,-18.30741 -0.566439,-3.71078 -1.213016,-8.05556 -1.437122,-9.65522 -0.224106,-1.59966 -0.464704,-3.08794 -0.534334,-3.30729 -0.10642,-0.33526 -1.001962,-0.41076 -5.619812,-0.47336 -3.02129,-0.0409 -6.018348,-0.14693 -6.660059,-0.23513 -0.401142,-0.0551 -0.663136,-0.0856 -0.823722,-0.078 z m 86.08777,0.0956 c -0.0511,-0.002 -0.10803,-0.001 -0.17104,5.2e-4 -0.16805,0.005 -0.38068,0.0231 -0.64854,0.0512 -0.69122,0.0725 -3.57849,0.15623 -6.41615,0.18603 l -5.15937,0.0543 -0.3142,1.85209 c -0.17291,1.01864 -0.50307,3.2213 -0.73329,4.89479 -0.23022,1.67349 -0.59046,4.11427 -0.80098,5.42396 -0.21052,1.30968 -0.6229,3.86953 -0.91622,5.68854 -0.29331,1.81901 -0.8381,5.8076 -1.21078,8.86354 -0.37268,3.05594 -0.82462,6.38969 -1.00408,7.40833 l -0.32607,1.85209 -1.19683,0.0119 c -1.27944,0.0129 -2.58869,0.44339 -3.72484,1.22473 -0.38627,0.26563 -0.86251,0.48101 -1.05833,0.47801 -0.22427,-0.003 -1.52417,-3.1608 -3.51296,-8.53281 -4.39425,-11.86947 -5.70721,-15.37467 -7.36183,-19.6572 -0.79075,-2.04663 -1.51782,-4.04093 -1.61592,-4.43177 -0.23395,-0.93211 -0.67539,-0.9177 -0.56534,0.017 0.0984,0.83701 0.5785,14.36267 0.90847,25.59844 l 0.22531,7.67292 2.15284,5.39088 c 1.1841,2.96503 2.57029,6.59643 3.08043,8.06979 0.51014,1.47336 2.4414,6.72704 4.29173,11.67474 l 3.36414,8.99584 0.18913,-2.51354 c 0.33449,-4.44835 0.71166,-8.42786 1.16841,-12.32948 0.41899,-3.57897 0.48047,-3.81011 1.01285,-3.81011 1.24386,0 1.25242,-0.86381 -0.13487,13.58264 -0.30513,3.17749 -0.49035,5.94569 -0.41135,6.15156 0.11995,0.31262 1.63392,0.37414 9.18084,0.37414 h 9.03717 l -0.15503,-0.72761 c -0.0854,-0.40018 -0.45434,-2.03729 -0.81958,-3.63802 -1.10719,-4.85253 -2.00459,-12.60431 -1.53841,-13.28859 0.12143,-0.17823 1.02285,-0.43791 2.00298,-0.57671 1.95932,-0.27748 4.80173,-1.64798 7.27139,-3.50625 2.72502,-2.05041 3.51127,-2.14168 7.54011,-0.87333 2.69143,0.84719 4.65426,0.85467 6.40219,0.007 1.78884,-0.86208 3.61775,-2.38731 4.88601,-4.0752 0.96054,-1.27837 1.75528,-3.14881 1.46244,-3.44165 -0.0658,-0.0658 -0.86617,0.22257 -1.7787,0.64079 -1.31718,0.60367 -2.04106,0.76084 -3.51142,0.76584 -2.2806,0.007 -3.55503,-0.65477 -5.66787,-2.94504 -3.33558,-3.61571 -3.90439,-4.14272 -5.17074,-4.78782 -0.96109,-0.4896 -1.7743,-0.68552 -2.91972,-0.70332 l -1.5875,-0.0243 -1.01183,-1.98438 c -1.53708,-3.0141 -2.94771,-4.22158 -6.00325,-5.13767 l -1.187,-0.35553 0.0667,-2.07481 c 0.17494,-5.43441 3.64841,-25.43072 4.58887,-26.41803 0.13169,-0.13824 0.23926,-0.46012 0.23926,-0.7152 0,-0.25947 -0.0795,-0.37008 -0.43719,-0.38344 z m -89.004388,10.21385 c -1.884931,0 -3.426559,0.0893 -3.425631,0.19844 0.0044,0.52127 1.618907,6.26921 1.83348,6.52776 0.232203,0.27977 6.058842,0.26366 6.355685,-0.0181 0.120499,-0.11419 -0.651498,-4.21965 -1.099675,-5.84823 l -0.236678,-0.85989 z m 27.396777,0 c -6.281863,0 -8.06864,0.0733 -8.06514,0.33073 0.0025,0.1819 0.238461,1.22369 0.524515,2.3151 0.286054,1.09141 0.522016,2.36153 0.524516,2.82257 0.0025,0.46104 0.0657,0.99681 0.140043,1.19062 0.107813,0.28111 1.371839,0.34378 6.246131,0.31058 3.361033,-0.0229 6.211416,-0.14202 6.334497,-0.2651 0.196708,-0.19671 2.36523,-6.21999 2.36523,-6.56963 0,-0.0743 -3.631406,-0.13487 -8.069792,-0.13487 z m 37.721221,0 c -4.52095,0 -8.22017,0.0976 -8.22017,0.21704 0,0.25178 2.06988,5.80231 2.389,6.40633 0.1852,0.35061 1.05282,0.39498 6.36964,0.32608 3.38549,-0.0439 6.21077,-0.13466 6.27817,-0.20206 0.0674,-0.0674 0.337,-1.38066 0.59893,-2.91817 0.26193,-1.5375 0.55007,-3.02814 0.64027,-3.31246 0.16038,-0.50535 -0.0211,-0.51676 -8.05584,-0.51676 z m 23.63266,0 -0.45113,2.84427 c -0.24793,1.56435 -0.44904,3.11216 -0.44804,3.43958 0.003,0.58401 0.0624,0.59532 3.16725,0.59532 h 3.16518 l 0.30231,-1.12448 c 0.16646,-0.61847 0.58791,-2.10869 0.93638,-3.31143 0.34846,-1.20275 0.63355,-2.2445 0.63355,-2.3151 0,-0.0706 -1.64392,-0.12816 -3.65301,-0.12816 z m -79.391023,20.29643 c 1.524404,0.01 3.129994,0.22562 4.247286,0.64338 1.973755,0.73798 4.110589,2.76007 4.783688,4.52633 l 0.47904,1.25678 h 1.956987 c 2.116495,0 3.144422,0.32284 5.176428,1.62677 1.019147,0.65399 1.442602,1.17971 2.224154,2.76107 0.923592,1.86876 0.959461,2.04241 0.824239,4.01526 -0.239022,3.48726 -1.527272,5.37606 -4.55166,6.67246 -1.6253,0.69671 -4.355454,0.71409 -5.845122,0.0372 -2.187259,-0.99354 -3.3712,-3.35209 -2.71818,-5.41518 0.28999,-0.91617 0.56089,-1.20432 1.629875,-1.73426 1.268997,-0.62909 1.296181,-0.63111 2.645833,-0.18035 0.750015,0.25049 1.522545,0.52003 1.716691,0.59893 0.756991,0.30776 0.154573,-1.10245 -0.722953,-1.6924 -1.711732,-1.15078 -4.233075,-0.68288 -5.772774,1.07074 -1.049808,1.19566 -1.305148,2.48376 -0.89917,4.53615 0.582564,2.94509 0.626394,2.817 -1.292428,3.78065 -1.377554,0.69183 -2.141007,0.89007 -3.836458,0.99581 -3.023594,0.18856 -5.333147,-0.65349 -9.809221,-3.5755 -1.947504,-1.27135 -3.353586,-1.85115 -4.494816,-1.85415 -0.300124,-8.1e-4 -1.602357,0.35564 -2.89388,0.7922 -2.662685,0.90005 -5.194941,1.05292 -6.574792,0.39739 -1.111525,-0.52806 -3.0825,-2.35203 -3.0825,-2.85254 0,-0.31368 0.440158,-0.41982 2.050521,-0.49402 1.878899,-0.0866 2.182266,-0.18299 3.624585,-1.15239 0.865735,-0.58187 2.473079,-2.10388 3.571875,-3.38222 1.098797,-1.27835 2.411644,-2.62033 2.917135,-2.98225 1.165102,-0.83419 2.751092,-1.26579 3.876249,-1.05471 0.756367,0.1419 1.0047,0.41067 1.831929,1.98489 1.727817,3.28804 4.716806,4.46799 7.608838,3.00343 0.926899,-0.4694 2.300118,-2.59066 2.300118,-3.55327 0,-0.81448 -1.159082,-2.34972 -1.774052,-2.34972 -0.293024,0 -0.3575,0.16375 -0.234611,0.59531 0.440627,1.54739 0.448052,2.02426 0.04548,2.80293 -0.996713,1.92743 -3.857628,2.17322 -5.668905,0.48679 -2.848273,-2.65197 -1.39323,-7.53135 2.898531,-9.72085 0.794352,-0.40525 2.237641,-0.60064 3.762044,-0.59067 z m 73.048263,0.53175 c 1.50703,-0.0301 3.00357,0.195 4.16822,0.68162 2.26802,0.94763 4.45731,4.09954 4.44831,6.40374 -0.005,1.34107 -0.91593,2.97021 -2.11615,3.78582 -1.2974,0.88165 -3.66175,0.7385 -4.68396,-0.28371 -0.61722,-0.61718 -0.69251,-0.89193 -0.66921,-2.42982 0.0145,-0.95362 -0.0859,-1.73375 -0.22272,-1.73375 -0.55453,0 -1.29714,1.7422 -1.29811,3.04529 -8e-4,1.06736 0.13503,1.47268 0.69815,2.07998 2.02802,2.18713 6.2911,1.937 8.13232,-0.47697 0.36964,-0.48462 0.97513,-1.56528 1.34513,-2.40192 l 0.67283,-1.52136 1.12345,0.12868 c 2.14411,0.24532 3.6347,1.15412 5.62188,3.42821 3.86221,4.41984 4.80527,5.01281 8.25737,5.194 1.18772,0.0623 2.16297,0.17514 2.19315,0.25218 2.7e-4,9.1e-4 5.2e-4,0.003 5.2e-4,0.004 0,0.49063 -1.47778,1.91231 -2.67994,2.57814 -1.25325,0.69408 -1.67082,0.7855 -3.53777,0.7736 -1.52216,-0.01 -2.81209,-0.22184 -4.593,-0.75499 -1.43948,-0.43094 -2.77801,-0.68098 -3.19619,-0.59738 -0.78667,0.15734 -2.9288,1.40643 -5.50251,3.20807 -0.90759,0.63533 -2.39587,1.39274 -3.30729,1.68362 -0.91142,0.29089 -2.13351,0.58165 -2.71559,0.64595 -1.48978,0.1645 -4.11968,-0.43455 -5.75521,-1.31103 l -1.38854,-0.74414 v -3.30729 c 0,-3.08968 -0.042,-3.36348 -0.64183,-4.16305 -0.7942,-1.05861 -2.57498,-1.78486 -3.86436,-1.57562 -1.28732,0.20891 -2.76986,1.16798 -2.76986,1.79162 0,0.61154 0.18169,0.62565 1.41439,0.11059 2.23234,-0.93273 4.16978,-0.0658 4.61005,2.06292 0.98748,4.77457 -5.74712,7.2621 -10.28361,3.79822 -1.74149,-1.32972 -2.68638,-3.2464 -2.83083,-5.74177 -0.18368,-3.173 0.96693,-5.23503 3.85299,-6.90449 1.36931,-0.79212 1.72334,-0.87763 3.63389,-0.88263 1.16417,-0.003 2.26789,-0.10278 2.45256,-0.22221 0.18467,-0.11944 0.61995,-0.77429 0.96738,-1.45521 0.84708,-1.66005 2.8376,-3.68201 4.2323,-4.29896 1.20713,-0.53397 2.72476,-0.81947 4.23179,-0.84956 z m -29.27832,54.73465 c -0.13196,0.0908 -0.26002,0.18084 -0.3824,0.27905 0.10595,-0.0876 0.27238,-0.19044 0.3824,-0.27905 z m -23.827491,9.32449 c 3.32e-4,0.0122 9.54e-4,0.0245 10e-4,0.0367 0.04621,0.001 0.09228,0.003 0.138493,0.004 -0.01754,-0.005 -0.03564,-0.0108 -0.05426,-0.0165 -0.02823,-0.009 -0.05666,-0.0167 -0.08527,-0.0243 z" /><text
       xml:space="preserve"
       style="font-style:normal;font-variant:normal;font-weight:normal;font-stretch:normal;font-size:13.9899px;font-family:'Courier New';-inkscape-font-specification:'Courier New';writing-mode:lr-tb;direction:ltr;fill:#000000;stroke-width:0.104924"
       x="112.0181"
       y="205.83279"
       id="text26"><tspan
         id="tspan26"
         x="112.0181"
         y="205.83279"
         style="font-style:normal;font-variant:normal;font-weight:normal;font-stretch:normal;font-size:13.9899px;font-family:'Shotengai Demo';-inkscape-font-specification:'Shotengai Demo';stroke-width:0.104924"
         sodipodi:role="line">STORE</tspan></text><text
       xml:space="preserve"
       style="font-style:normal;font-variant:normal;font-weight:normal;font-stretch:normal;font-size:15.2092px;font-family:'Courier New';-inkscape-font-specification:'Courier New';writing-mode:lr-tb;direction:ltr;fill:#000000;stroke-width:0.114069"
       x="67.622261"
       y="206.7142"
       id="text7"><tspan
         id="tspan7"
         x="67.622261"
         y="206.7142"
         style="font-style:normal;font-variant:normal;font-weight:normal;font-stretch:normal;font-size:15.2092px;font-family:'Shotengai Demo';-inkscape-font-specification:'Shotengai Demo';stroke-width:0.114069"
         sodipodi:role="line">WEEB</tspan></text></g></svg>
