<?xml version="1.0" encoding="UTF-8" standalone="no"?>
<!-- Created with Inkscape (http://www.inkscape.org/) -->

<svg
   width="11in"
   height="8.5in"
   viewBox="0 0 1056 816"
   version="1.1"
   id="svg1"
   sodipodi:docname="logo.svg"
   inkscape:version="1.4.3 (0d15f75, 2025-12-25)"
   inkscape:export-filename="C:\Users\divya\Desktop\logo.png"
   inkscape:export-xdpi="96"
   inkscape:export-ydpi="96"
   xmlns:inkscape="http://www.inkscape.org/namespaces/inkscape"
   xmlns:sodipodi="http://sodipodi.sourceforge.net/DTD/sodipodi-0.dtd"
   xmlns="http://www.w3.org/2000/svg"
   xmlns:svg="http://www.w3.org/2000/svg">
  <sodipodi:namedview
     id="namedview1"
     pagecolor="#505050"
     bordercolor="#eeeeee"
     borderopacity="1"
     inkscape:showpageshadow="false"
     inkscape:pageopacity="0"
     inkscape:pagecheckerboard="0"
     inkscape:deskcolor="#505050"
     inkscape:document-units="in"
     inkscape:zoom="0.74090233"
     inkscape:cx="466.99813"
     inkscape:cy="460.92445"
     inkscape:window-width="1920"
     inkscape:window-height="1057"
     inkscape:window-x="-8"
     inkscape:window-y="-8"
     inkscape:window-maximized="1"
     inkscape:current-layer="layer1"
     labelstyle="default"
     inkscape:clip-to-page="false"
     inkscape:antialias-rendering="true" />
  <defs
     id="defs1" />
  <g
     inkscape:label="Layer 1"
     inkscape:groupmode="layer"
     id="layer1">
    <path
       id="path1"
       style="fill:#ffffff;fill-opacity:1;stroke-width:5.99649"
       d="m 546.91932,10.189453 -24.38477,0.439453 -24.38476,0.439453 0.49609,14.273438 c 0.27238,7.848972 0.77037,14.717648 1.10938,15.267578 0.56427,0.913219 43.6813,-0.06459 44.79687,-1.015625 0.26846,-0.229127 0.91139,-6.936272 1.42773,-14.908203 z m -5.23633,37.394531 c -1.30901,0.01214 -10.77027,0.618634 -21.02344,1.345704 l -18.64258,1.322265 v 5.441406 5.439453 l 9.91797,-0.972656 c 5.45394,-0.53489 14.91312,-1.44748 21.02149,-2.027344 11.04597,-1.048909 11.10547,-1.077678 11.10547,-5.8125 0,-3.184027 -0.78693,-4.754313 -2.37891,-4.736328 z m 3.42578,14.601563 -20.3418,1.160156 c -11.1886,0.637428 -20.88535,1.493378 -21.54687,1.902344 -0.66139,0.408956 -1.20313,2.84383 -1.20313,5.410156 0,5.323274 -0.77331,5.155441 14.5625,3.132813 6.38969,-0.842748 15.18774,-1.788095 19.55079,-2.103516 7.35203,-0.531279 7.96989,-0.901084 8.45507,-5.037109 z m -4.99219,12.720703 c -3.50051,-0.158293 -9.82679,0.6114 -21.43945,2.203125 -16.94928,2.323216 -16.66016,2.191778 -16.66016,7.685547 0,4.198659 0.55439,4.805482 4.36329,4.769531 2.39976,-0.02417 7.22041,-0.689623 10.71093,-1.484375 3.4905,-0.794791 10.62953,-1.917474 15.86524,-2.496094 10.92301,-1.207289 12.36842,-2.116288 11.63476,-7.300781 -0.30143,-2.13092 -0.97411,-3.218543 -4.47461,-3.376953 z m 0.39649,13.96875 c -2.53148,0.0361 -7.94063,0.929074 -22.23242,3.289062 -16.18866,2.67317 -16.26368,2.704191 -16.26368,7.201172 0,5.434536 -0.24669,5.414786 23.32227,1.781246 16.46016,-2.537171 17.83601,-3.022001 18.73242,-6.593746 0.54567,-2.174198 0.19159,-4.334276 -0.8125,-4.955078 -0.74261,-0.458733 -1.22715,-0.744878 -2.74609,-0.722656 z m 1.96484,15.67188 c -8.63851,0.20744 -39.72382,4.65246 -40.66211,6.09179 -0.54751,0.83982 -0.64757,2.87482 -0.21094,4.52344 0.90579,3.46419 1.4883,3.48676 24.1875,0.875 15.92913,-1.83284 16.69565,-2.09645 18.14258,-6.21094 0.83092,-2.36296 1.15479,-4.65196 0.71875,-5.08789 -0.16409,-0.16417 -0.94165,-0.22129 -2.17578,-0.1914 z m -404.46484,6.18164 c -0.22417,-0.008 -0.37195,0.0245 -0.4336,0.084 -1.16848,1.1685 17.20961,47.53404 24.92383,62.88086 3.28972,6.5446 7.30958,13.06205 8.9336,14.48633 2.12314,1.86196 8.97229,3.13244 24.37304,4.52343 11.78032,1.06407 21.88096,2.21772 22.44727,2.5625 1.5042,0.91563 52.72449,4.9795 89.40429,7.09376 17.45234,1.00595 59.57741,2.2861 93.60938,2.84374 34.03199,0.55709 66.51554,1.01368 72.1875,1.01368 h 10.31445 l 0.46485,-11.45508 c 0.5199,-12.80402 2.02799,-11.25973 -13.89258,-14.20508 -5.86404,-1.08491 -7.83096,-2.42993 -11.44727,-7.81641 l -4.36523,-6.5039 -22.66602,-1.10547 C 385.9252,162.88612 308.0347,153.59351 262.44471,144.91799 c -33.19889,-6.31749 -87.61435,-21.0728 -111.56445,-30.25 -5.96923,-2.28732 -11.29822,-3.90171 -12.86719,-3.93945 z m 767.75976,0.041 c -1.90944,0.0538 -10.39755,2.66813 -20.12304,6.23242 -37.49929,13.74303 -87.18435,26.16597 -132.16016,33.04493 -53.70053,8.21332 -100.63144,13.26877 -139.94141,15.07031 l -24.12109,1.10351 -1.53516,4.41211 c -2.08533,5.98201 -7.10229,8.92815 -19.28515,11.33789 l -10.26563,2.03321 -0.46484,11.52148 -0.4668,11.52344 50.44336,-0.89844 c 92.59306,-1.64968 184.09496,-6.46634 225.19141,-11.85547 13.21403,-1.7328 26.6487,-3.15234 29.85351,-3.15234 3.20483,0 7.23411,-0.7519 8.95313,-1.67188 3.57385,-1.91272 10.47038,-16.10802 21.1582,-43.54492 4.07916,-10.47142 8.9274,-22.42987 10.77149,-26.57226 1.84425,-4.14238 2.90922,-7.97354 2.36718,-8.51563 -0.0484,-0.0538 -0.17762,-0.0738 -0.375,-0.0684 z m -362.5039,8.74219 -17.84961,1.0293 c -22.15924,1.27643 -23.40235,1.61697 -23.40235,6.45117 v 3.86133 h 20.62696 20.625 v -5.66993 z m 0.13281,16.89453 -20.29297,0.26367 c -11.16259,0.14565 -20.92224,0.32398 -21.68359,0.39649 -0.76121,0.0724 -0.43675,1.27179 0.71875,2.66406 1.55446,1.8731 3.66622,2.28135 8.125,1.56836 10.46747,-1.6738 7.16773,1.95306 -5.47461,6.01562 -1.5271,0.49054 -2.77735,1.92678 -2.77735,3.19141 0,1.92206 3.0563,2.1671 18.64258,1.50586 20.72033,-0.87911 23.2869,-1.32739 21.75391,-3.8086 -0.6523,-1.05537 -3.42574,-1.30691 -7.24219,-0.6621 -3.98174,0.67269 -6.18164,0.43784 -6.18164,-0.6543 0,-1.99055 6.20883,-3.80317 10.49609,-3.06445 2.18137,0.37597 3.11286,-0.55493 3.45118,-3.44922 z m -22.4375,5.55273 c 0.9241,0 1.67969,0.71528 1.67969,1.5879 0,0.87262 -0.31613,1.58593 -0.70117,1.58593 -0.38507,0 -1.14067,-0.71332 -1.67969,-1.58593 -0.53904,-0.87263 -0.22277,-1.5879 0.70117,-1.5879 z m -42.39258,18.76954 c -7.45662,0.25724 -9.27284,0.83266 -9.45312,1.86328 -0.87166,4.98382 2.65721,6.99142 15.73828,8.94922 15.85524,2.37298 75.44833,1.74038 84.01758,-0.89063 5.25429,-1.61323 9.18932,-6.98253 6.37304,-8.69531 -0.5726,-0.34842 -24.58982,-0.88077 -53.375,-1.1836 -22.74395,-0.23935 -35.84393,-0.32723 -43.30078,-0.041 z m 22.88281,19.79296 c -1.49066,0.5805 -2.49842,13.08914 -3.95117,48.92969 -5.18448,127.91419 -7.40462,191.34054 -9.79492,279.80078 -0.9432,34.90467 -2.31179,74.17252 -3.04102,87.26172 -0.72919,13.08921 -0.99948,24.14817 -0.59375,24.57813 0.40295,0.42996 8.24233,-7.24428 17.41993,-17.05469 9.17752,-9.81039 17.51196,-17.83767 18.52148,-17.83789 1.37844,-2.8e-4 1.72363,27.66942 1.39453,110.57422 -0.24183,60.81567 -0.0241,110.16034 0.48047,109.65429 0.50605,-0.5062 2.55156,-7.96359 4.54297,-16.57031 4.02061,-17.37569 28.30774,-104.63863 32.06641,-115.21289 1.31687,-3.70475 6.67254,-21.72974 11.90234,-40.05469 5.22981,-18.32497 10.54569,-36.01084 11.8125,-39.30078 3.88102,-10.07956 3.03343,-11.98652 -2.85352,-6.42968 -2.83609,2.67691 -9.79867,8.19929 -15.4707,12.27343 l -10.3125,7.40625 -1.11719,-44.09179 C 551.84538,540.19689 550.46206,468.238 549.38807,404.5371 548.31396,340.83618 547.0327,264.79897 546.54041,235.5664 l -0.89453,-53.14843 -21.09375,-1.33399 c -11.60066,-0.7321 -21.99228,-0.99198 -23.0957,-0.5625 z m 338.5,23.64844 c -0.67136,-0.0106 -1.58194,0.14151 -2.77343,0.44922 -2.39961,0.62036 -10.43239,1.70658 -17.84961,2.41211 -80.50019,7.65749 -109.54049,9.22714 -195.60547,10.57617 -35.59381,0.55767 -64.9314,1.43608 -65.19531,1.95117 -0.26376,0.51508 -0.15647,6.11304 0.24023,12.43946 l 0.72266,11.50195 85.09961,-0.10547 c 87.86447,-0.10678 168.8469,-1.85773 173.33593,-3.75 3.8172,-1.60914 23.53405,-30.03019 23.58789,-34 0.0151,-0.98082 -0.44314,-1.45535 -1.5625,-1.47461 z m -635.88671,1.27149 c -2.52458,0.17926 15.57496,26.95232 21.76171,32.1582 l 4.88477,4.10937 38.38672,0.14844 c 21.11347,0.0814 38.72779,0.48542 39.13867,0.89649 0.41087,0.41135 39.80366,0.74609 87.54297,0.74609 h 86.79883 l 0.99218,-4.95703 c 0.5457,-2.72684 0.99219,-8.32579 0.99219,-12.43945 v -7.47657 l -65.44726,-1.10156 c -72.66967,-1.21987 -131.42744,-4.11383 -180.47266,-8.89258 -17.88862,-1.74299 -33.43357,-3.17941 -34.54688,-3.1914 -0.0106,-1.3e-4 -0.0209,-6.8e-4 -0.0312,0 z m 58.33984,49.2207 c -1.60491,0.0757 -1.52128,0.78788 -0.80274,2.50391 10.51468,25.11098 24.53483,97.12657 29.43164,151.17382 0.70962,7.83225 1.11852,12.91939 0.96485,16.22461 1.30083,1.62992 2.52767,3.32114 3.75,5.00977 1.90506,2.68613 3.78948,5.38698 5.625,8.12109 0.11224,0.16722 0.22494,0.33335 0.33789,0.5 8.93864,0.11753 18.26097,1.40973 24.79687,3.85352 11.83562,4.42529 24.64933,16.54924 28.68555,27.14062 l 2.87305,7.53711 h 5.51758 c 0.60769,-1.53995 1.21089,-3.08201 1.79101,-4.63281 1.15413,-3.01671 2.32039,-6.02789 3.44141,-9.05664 -0.53738,-3.22976 -1.24549,-9.41876 -1.81836,-16.14844 -2.08359,-24.47624 -7.1191,-63.42445 -14.19531,-109.78125 -3.39662,-22.25171 -7.27527,-48.30416 -8.61914,-57.89648 -1.34387,-9.59255 -2.78561,-18.51672 -3.20313,-19.83203 -0.63816,-2.01039 -6.00829,-2.46446 -33.69922,-2.83985 -18.11717,-0.24521 -36.08948,-0.87934 -39.9375,-1.4082 -2.40545,-0.3304 -3.97648,-0.51433 -4.93945,-0.46875 z m 516.22461,0.57227 c -0.30627,-0.0106 -0.64774,-0.007 -1.02539,0.004 -1.00788,0.0308 -2.28249,0.13799 -3.88867,0.30664 -4.14495,0.43476 -21.4585,0.93654 -38.47461,1.11524 l -30.9375,0.32617 -1.88477,11.10547 c -1.0369,6.10826 -3.01594,19.31645 -4.39648,29.35156 -1.38053,10.03506 -3.54047,24.67185 -4.80274,32.52539 -1.26242,7.85351 -3.7352,23.2036 -5.49414,34.11133 -1.7588,10.90768 -5.02697,34.82549 -7.26172,53.15039 -2.23491,18.32493 -4.94344,38.31554 -6.01953,44.42383 l -0.10351,0.58789 c -0.0486,0.52188 -0.10093,1.04324 -0.15821,1.56445 -0.084,0.7613 -0.18696,1.52 -0.28711,2.2793 -0.0796,0.58972 -0.1591,1.17919 -0.23437,1.76953 0.0325,0.0513 0.0651,0.10297 0.0977,0.1543 1.53944,2.50155 2.80401,5.15804 4.10157,7.78906 0.81442,1.61781 1.57226,3.26094 2.20312,4.95898 0.21346,0.53049 0.13385,0.32838 0.30664,0.79102 1.07876,-0.17344 1.83329,-0.36774 2.14649,-0.57031 1.1074,-0.7162 3.71756,-4.64146 5.80078,-8.72461 5.07962,-9.95447 17.0155,-22.07976 25.3789,-25.7793 7.23859,-3.20191 16.33811,-4.9133 25.375,-5.09375 l 0.004,-0.002 c 4.02798,-0.0804 8.04456,0.1431 11.87695,0.67382 0.002,-0.0356 0.005,-0.0718 0.008,-0.10742 0.006,-0.13553 0.0125,-0.2706 0.0195,-0.40625 0.021,-0.40403 0.0428,-0.80718 0.0684,-1.21094 0.0249,-0.41091 0.0525,-0.82225 0.0879,-1.23242 0.0307,-0.34305 0.0655,-0.68617 0.11328,-1.02734 0.0471,-0.34411 0.0988,-0.68779 0.15039,-1.03125 0.0499,-0.33228 0.0963,-0.66447 0.13672,-0.99805 0.0347,-0.28336 0.0691,-0.5673 0.0957,-0.85156 0.0242,-0.25637 0.0471,-0.51289 0.0684,-0.76953 0.0196,-0.22155 0.036,-0.44278 0.0586,-0.66406 0.0166,-0.18514 0.0329,-0.36967 0.0508,-0.55469 0.015,-0.14687 0.0288,-0.29465 0.0449,-0.44141 0.0134,-0.12202 0.0265,-0.24332 0.041,-0.36523 0.006,-0.053 0.0124,-0.10685 0.0195,-0.16016 v -0.002 -0.002 -0.002 l 0.38477,-11.98828 c 1.04901,-32.58743 21.87805,-152.49561 27.51758,-158.41601 0.78964,-0.82892 1.43519,-2.75949 1.43555,-4.28907 0,-1.55593 -0.47813,-2.21873 -2.62305,-2.29882 z M 559.26307,283.2793 c -0.75478,0.0234 -1.25181,1.4455 -0.92188,4.24804 0.59014,5.01914 3.46857,86.12672 5.44727,153.50196 l 1.35156,46.00976 12.9082,32.32617 c 7.10052,17.77979 15.41363,39.5556 18.47266,48.39063 3.05902,8.83501 14.64074,40.3389 25.73633,70.00781 l 20.17187,53.94336 1.13477,-15.07226 c 2.00577,-26.67451 4.26701,-50.53754 7.00586,-73.9336 1.19858,-10.23773 1.90813,-15.90576 2.66992,-19.03515 0.008,-0.12498 0.0168,-0.2501 0.0254,-0.375 0.0318,-0.48594 0.0692,-0.97156 0.10742,-1.45704 0.0378,-0.47505 0.0786,-0.95032 0.13282,-1.42382 0.061,-0.52957 0.12693,-1.05692 0.20703,-1.58399 0.0904,-0.58245 0.19085,-1.1642 0.3164,-1.74023 0.0323,-0.14995 0.0657,-0.29959 0.0996,-0.44922 0.007,-0.0619 0.0141,-0.12371 0.0215,-0.18555 0.006,-0.0572 0.0131,-0.11471 0.0195,-0.17187 -0.30201,-0.43779 -0.45384,-1.03292 -0.35352,-1.7793 0.15004,-1.11634 0.38937,-2.21808 0.58985,-3.32617 0.0106,-0.0618 0.0208,-0.12367 0.0312,-0.18555 -5.03223,-1.57935 -9.97457,-4.06105 -14.54493,-7.55078 -10.44283,-7.97367 -16.1104,-19.46618 -16.97656,-34.42969 -0.96353,-16.64364 4.1965,-28.18955 17.08789,-37.52148 -0.004,-0.006 -0.008,-0.012 -0.0117,-0.0176 -0.025,-0.036 -0.0491,-0.073 -0.0703,-0.11133 -0.0162,-0.0298 -0.0291,-0.0614 -0.0391,-0.0937 -0.003,-0.0114 -0.007,-0.0236 -0.01,-0.0351 -0.11543,-0.16774 -0.22799,-0.3366 -0.33203,-0.51172 -0.13128,-0.21872 -0.25264,-0.4433 -0.37695,-0.66602 -0.15739,-0.29545 -0.30759,-0.5943 -0.44336,-0.90039 -0.11776,-0.27586 -0.22396,-0.55664 -0.32813,-0.83789 -0.12792,-0.33884 -0.25288,-0.67926 -0.37695,-1.01953 -0.12925,-0.36314 -0.25752,-0.72711 -0.39844,-1.08594 -0.12195,-0.31184 -0.24719,-0.62103 -0.37695,-0.92969 -0.11453,-0.27059 -0.24036,-0.53609 -0.35937,-0.80468 -0.0838,-0.19522 -0.16449,-0.39249 -0.24415,-0.58985 -0.005,-0.0109 -0.009,-0.0223 -0.0137,-0.0332 -0.0365,-0.0815 -0.0747,-0.16268 -0.11133,-0.24414 -0.0958,-0.20867 -0.20718,-0.40934 -0.3125,-0.61328 -0.0938,-0.17892 -0.18825,-0.35781 -0.28125,-0.53711 -0.0937,-0.18405 -0.19019,-0.36647 -0.27539,-0.55469 -0.0931,-0.201 -0.18146,-0.40405 -0.25976,-0.61133 -0.0792,-0.1995 -0.15718,-0.39891 -0.23828,-0.59765 -0.0352,-0.0814 -0.0724,-0.1624 -0.11133,-0.24219 -0.0263,-0.0481 -0.0532,-0.0965 -0.0801,-0.14649 -0.0363,-0.0413 -0.0736,-0.0815 -0.11133,-0.12109 -0.223,-0.23398 -0.30563,-0.46723 -0.29297,-0.6543 -0.0152,-0.0299 -0.0315,-0.0594 -0.0469,-0.0898 -0.068,-0.12737 -0.13327,-0.25644 -0.19531,-0.38672 -0.007,-0.0171 -0.0141,-0.0337 -0.0215,-0.0508 -0.0531,-0.12344 -0.10489,-0.24744 -0.1582,-0.37109 -0.0307,-0.0712 -0.0541,-0.13883 -0.0703,-0.20313 v -0.002 c -3.2622,-6.687 -9.58999,-22.50262 -18.49219,-46.54883 -26.343,-71.17743 -34.22063,-92.1948 -44.14258,-117.875 -4.74175,-12.27261 -9.10113,-24.23055 -9.68945,-26.57422 -0.70147,-2.79469 -1.71398,-4.16991 -2.46875,-4.14648 z m -75.85938,3.55859 c -0.79438,-0.008 -1.98081,2.09513 -2.89453,6.26172 -0.61935,2.82596 -3.45996,10.49254 -6.31445,17.03711 -2.85448,6.54465 -15.28487,40.10005 -27.62305,74.56836 -26.44681,73.88273 -25.80926,72.15627 -32.17578,86.87109 -2.80518,6.48352 -4.03237,9.30952 -5.16016,10.00195 -1.2268,2.78234 -2.53198,5.52977 -3.875,8.25782 3.2307,2.89854 5.4813,6.44314 8.82227,13.20312 5.53833,11.20597 5.75227,12.24597 4.94141,24.07617 -1.43328,20.91135 -9.15724,32.23783 -27.29297,40.01172 -0.34388,0.14741 -0.69679,0.28871 -1.05664,0.42578 0.22881,2.67739 0.45932,5.35612 0.71289,8.03125 0.19325,2.10457 0.39127,4.20876 0.59375,6.3125 0.0569,0.59118 0.11431,1.18234 0.17187,1.77344 0.22381,2.46915 0.47708,4.9363 0.71289,7.4043 0.21556,2.07876 0.42602,4.1575 0.6211,6.23828 0.0416,0.44394 0.0198,0.85173 -0.0527,1.22266 2.31137,23.23576 5.86466,61.80241 6.75586,77.30664 0.60364,10.50203 1.43097,18.31705 1.91602,18.38086 0.0362,-1.4e-4 0.0747,-0.0411 0.10742,-0.13477 0.46106,-1.30892 2.84492,-8.448 5.29687,-15.86523 2.45193,-7.41723 7.96064,-22.34644 12.24024,-33.17578 4.27966,-10.82944 11.01975,-29.39329 14.97851,-41.25196 3.95877,-11.85864 11.67874,-33.34006 17.15625,-47.73828 15.08144,-39.64283 22.73864,-64.46821 23.73633,-76.94922 0.48811,-6.10834 1.62234,-31.81137 2.51953,-57.11719 2.744,-77.39413 4.72744,-121.82986 5.76368,-129.13476 0.56999,-4.01843 0.16838,-6.00972 -0.60157,-6.01758 z m -238.48633,29.64453 c -11.30297,0 -20.54657,0.53499 -20.54101,1.18946 0.0264,3.1258 9.70745,37.59411 10.99414,39.14453 1.39241,1.67761 36.33131,1.58025 38.11133,-0.10938 0.72257,-0.68474 -3.90625,-25.30258 -6.59375,-35.06836 l -1.41797,-5.15625 z m 164.28516,0 c -37.66917,0 -48.38231,0.4407 -48.36133,1.98438 0.0136,1.09079 1.4292,7.33622 3.14453,13.88086 1.71531,6.54465 3.12904,14.16115 3.14454,16.92578 0.0136,2.76462 0.39403,5.97846 0.83984,7.14062 0.64651,1.68569 8.22639,2.06042 37.45508,1.86133 20.15443,-0.13748 37.24631,-0.8518 37.98437,-1.58984 1.17953,-1.17954 14.1836,-37.2979 14.1836,-39.39453 0,-0.4455 -21.77587,-0.8086 -48.39063,-0.8086 z m 226.19531,0 c -27.10987,0 -49.29101,0.58458 -49.29101,1.30078 0,1.50978 12.41054,34.79404 14.32422,38.41602 1.11041,2.10246 6.313,2.3682 38.19531,1.95508 20.3011,-0.26347 37.24417,-0.80679 37.64844,-1.21094 0.40411,-0.40416 2.01919,-8.27833 3.58984,-17.49805 1.57066,-9.2196 3.29901,-18.15837 3.83984,-19.86328 0.96177,-3.03036 -0.12676,-3.09961 -48.30664,-3.09961 z m 141.71289,0 -2.70507,17.05664 c -1.48671,9.38064 -2.69145,18.66164 -2.68555,20.625 0.0181,3.50202 0.37396,3.57029 18.99219,3.57032 h 18.98047 l 1.8125,-6.74415 c 0.99819,-3.70867 3.52567,-12.64521 5.61523,-19.85742 2.08957,-7.21229 3.79883,-13.4575 3.79883,-13.88086 0,-0.42337 -9.85875,-0.76953 -21.90625,-0.76953 z m -430.04687,245.7793 c -0.93221,0.4439 -1.86086,0.89608 -2.77149,1.38281 -2.93077,1.54441 -5.84122,3.13435 -8.58007,5.00586 -3.83726,2.57792 -7.72201,5.07861 -11.58985,7.60938 -3.78129,2.56933 -7.65613,5.00676 -11.80664,6.94531 -3.11703,1.47396 -6.24979,2.92608 -9.50586,4.07031 -0.6968,0.76148 -1.40606,1.51116 -2.13476,2.24219 -0.96534,0.93654 -1.95641,1.84719 -2.99219,2.70117 l -0.82031,15.25391 c -1.45874,27.16159 -9.71537,78.45407 -14.47657,89.92968 -0.94337,2.27364 4.35538,2.54953 53.76368,2.80078 51.43705,0.26275 54.80801,0.10845 54.80468,-2.52148 -0.002,-1.541 -1.09026,-13.51045 -2.41992,-26.59961 -2.16291,-21.2918 -3.8408,-41.78504 -4.84765,-58.09961 -0.0119,-0.10137 -0.0237,-0.20325 -0.0352,-0.30469 -0.0723,-0.63028 -0.14493,-1.25923 -0.20703,-1.89062 -0.0566,-0.58228 -0.1167,-1.16609 -0.1543,-1.75 -0.0247,-0.33873 -0.0463,-0.67709 -0.0703,-1.01563 -0.0129,-0.0729 -0.0258,-0.14594 -0.0391,-0.21875 -0.0266,-0.13992 -0.0518,-0.28003 -0.0781,-0.41992 -0.0236,-0.10729 -0.0466,-0.2149 -0.0684,-0.32226 -0.008,-0.0383 -0.0138,-0.077 -0.0215,-0.11524 -0.007,-0.0311 -0.0127,-0.0626 -0.0195,-0.0937 -0.0132,-0.0601 -0.0275,-0.11984 -0.041,-0.17968 -0.0137,-0.058 -0.0249,-0.11448 -0.041,-0.17188 -0.0129,-0.0477 -0.0252,-0.0976 -0.0332,-0.14648 -0.007,-0.0415 -0.005,-0.0728 0.002,-0.0937 -0.002,-0.0132 -0.005,-0.0259 -0.008,-0.0391 -0.0273,-0.14909 -0.0513,-0.29774 -0.0762,-0.44726 -0.0272,-0.16518 -0.0517,-0.33049 -0.0762,-0.4961 -0.0262,-0.18021 -0.0548,-0.36068 -0.0801,-0.54101 -0.0271,-0.1846 -0.0536,-0.37002 -0.0801,-0.55469 -0.0273,-0.19225 -0.0553,-0.38411 -0.084,-0.57617 -0.0299,-0.20667 -0.0592,-0.41229 -0.0879,-0.61914 -0.0282,-0.21216 -0.0584,-0.42447 -0.0859,-0.63672 -0.0303,-0.23264 -0.0592,-0.46592 -0.084,-0.69922 -0.0273,-0.25487 -0.0528,-0.51035 -0.0762,-0.76562 -0.0254,-0.27057 -0.0485,-0.54001 -0.0742,-0.81055 -0.027,-0.28323 -0.0523,-0.56805 -0.0762,-0.85156 -0.0241,-0.2858 -0.0455,-0.57137 -0.0664,-0.85743 -0.0212,-0.29674 -0.044,-0.59412 -0.0684,-0.89062 -0.0256,-0.3093 -0.052,-0.61689 -0.082,-0.92578 -0.0273,-0.28998 -0.0581,-0.58118 -0.0859,-0.8711 -0.0247,-0.26106 -0.0486,-0.52171 -0.0684,-0.7832 -0.016,-0.21393 -0.0301,-0.42675 -0.0469,-0.64062 -0.0121,-0.1512 -0.0255,-0.30244 -0.043,-0.45313 -0.008,-0.0727 -0.0164,-0.14615 -0.0254,-0.21875 -0.004,-0.0334 -0.002,-0.063 0.004,-0.0898 -0.009,-0.0778 -0.0177,-0.15756 -0.0234,-0.23828 -0.19895,-2.80263 -0.40166,-5.60484 -0.61718,-8.40625 -0.37701,-4.94387 -0.74365,-9.88966 -1.11524,-14.83399 -8.22623,0.85261 -17.16937,-0.027 -22.97265,-2.66406 -2.85366,-1.29625 -5.42203,-2.98045 -7.6543,-4.94922 -0.68751,-0.0446 -1.37517,-0.0915 -2.0625,-0.13867 z m 346.56055,2.20898 c -7.14009,6.25476 -17.95634,9.47853 -29.25196,8.49024 0.0418,0.73953 0.0583,1.47981 0.0606,2.2207 10e-4,1.15688 -0.13661,2.30577 -0.2832,3.45117 -0.11698,0.96146 -0.29009,1.91489 -0.48438,2.86328 -0.0428,0.64838 -0.0904,1.29594 -0.14258,1.94336 -0.0753,1.1003 -0.2402,2.19102 -0.40039,3.28125 -0.14752,0.9873 -0.3211,1.96847 -0.49414,2.95118 v 1.16796 c 0,1.09275 -0.0245,2.18543 -0.0664,3.27735 -0.0519,1.14828 -0.16607,2.29348 -0.32422,3.43164 -0.15919,1.15634 -0.38541,2.3014 -0.64258,3.43945 -0.13922,0.60549 -0.2825,1.21037 -0.42774,1.81445 -0.79027,11.12356 -2.49004,28.90534 -5.33203,58.5 -1.82974,19.05382 -2.94062,35.65219 -2.46679,36.88672 0.71917,1.8746 9.79772,2.24414 55.05273,2.24414 h 54.19141 l -0.92969,-4.36328 c -0.51211,-2.39968 -2.72589,-12.21566 -4.91602,-21.81445 -5.791,-25.38056 -10.62463,-63.98831 -9.91015,-76.16211 -0.51286,-3.53131 -0.78372,-7.32316 -0.77735,-11.37305 -0.14865,0.006 -0.30436,0.0103 -0.46679,0.0117 -0.79214,0.007 -1.58482,0.0125 -2.37696,0.0195 -0.65329,-0.16635 -1.3202,-0.2826 -1.95898,-0.49804 -0.9351,-0.31539 -1.96684,-0.9062 -2.82422,-1.39649 -1.67686,-0.9589 -3.30848,-1.99157 -4.95312,-3.0039 -0.27718,-0.17174 -0.58853,-0.36565 -0.91797,-0.57032 -4.65469,-1.20202 -9.25898,-2.80699 -13.16211,-4.66601 -2.02696,0.86159 -4.96266,0.67676 -8.35938,-1.31836 -2.45404,-1.44142 -4.90266,-2.88919 -7.29883,-4.42578 -3.36719,-2.15215 -6.68976,-4.37787 -10.13671,-6.40235 z m -272.99414,261.03711 -0.002,0.002 c 0.002,0.0734 0.008,0.14546 0.008,0.21875 0.27715,0.01 0.55296,0.0174 0.83008,0.0234 -0.10512,-0.0303 -0.21261,-0.0643 -0.32422,-0.0976 -0.16932,-0.0538 -0.34035,-0.10099 -0.51171,-0.14649 z" />
    <path
       id="path79"
       style="fill:#ffffff"
       d="m 714.66932,429.88086 -40.49219,36.44336 c 0,0 -1.0668,8.94913 -2.7832,21.7793 -0.0528,0.52707 -0.10353,1.05491 -0.15625,1.58203 -0.0927,0.92308 -0.19007,1.84515 -0.28907,2.76757 -0.0905,0.83916 -0.18724,1.6784 -0.27734,2.51758 -0.0891,0.79185 -0.16107,1.58514 -0.23047,2.37891 -0.0633,0.76563 -0.12249,1.53106 -0.18359,2.29687 -0.0576,0.70592 -0.11658,1.41305 -0.17188,2.11914 -0.0496,0.62104 -0.0872,1.24172 -0.1289,1.86329 -0.0352,0.51483 -0.0692,1.0299 -0.10157,1.54492 -0.0225,0.35853 -0.0427,0.7175 -0.0625,1.07617 0.1728,0.49527 0.24404,1.07099 0.17969,1.72461 -0.70577,7.16901 -0.34091,3.51846 -1.0957,10.94727 -0.16551,1.59981 -0.33325,3.19934 -0.50195,4.79882 -0.11733,2.02879 -0.2385,4.05749 -0.36133,6.08594 -0.1476,2.3349 -0.28683,4.67066 -0.39453,7.00781 -0.11612,2.4977 -0.24363,4.9952 -0.40821,7.49024 -0.17771,2.62746 -0.37299,5.25473 -0.61718,7.87695 -0.22298,2.41355 -0.45627,4.82591 -0.69141,7.23828 -0.20465,2.25483 -0.40666,4.51061 -0.68555,6.75781 -0.24512,2.06312 -0.52149,4.12388 -0.88476,6.16993 0.0717,0.94336 0.0987,1.88803 0.10156,2.83398 3.7e-4,0.34041 -0.0109,0.6804 -0.0312,1.01953 l 81.31055,10.91992 c 0,0 -3.49622,-95.91309 4.75781,-139.27343 4e-5,-0.001 -5e-5,-0.003 0,-0.004 4.7e-4,-0.0124 0.002,-0.026 0.004,-0.0391 0.006,-0.0442 0.0102,-0.0886 0.0156,-0.13281 0.14758,-0.7707 0.16312,-2.06091 0.31836,-2.79688 0.006,-0.0689 0.0124,-0.13807 0.0176,-0.20703 0.004,-0.11832 0.007,-0.23696 0.0117,-0.35547 0.021,-0.53366 0.0427,-1.0684 0.0742,-1.60156 0.0157,-0.2602 0.0321,-0.51954 0.0508,-0.7793 0.006,-0.13063 0.0127,-0.26183 0.0195,-0.39258 0.0186,-0.35893 0.0385,-0.71758 0.0605,-1.07617 z m -60.98633,149.14648 c -2.57631,6.89596 -1.34413,3.68684 -0.0352,0.25 0.0115,-0.0834 0.023,-0.16662 0.0352,-0.25 z" />
    <path
       id="path80"
       style="fill:#ffffff"
       d="m 613.4408,484.54492 -21.5957,21.59375 33.40625,65.79883 28.53711,2.85352 c 0.005,-0.0946 0.0139,-0.19103 0.0273,-0.29102 0.15004,-1.11634 0.38937,-2.21808 0.58985,-3.32617 0.13473,-0.78423 0.2513,-1.57103 0.35546,-2.35938 0.0233,-0.40302 0.0477,-0.80589 0.0723,-1.20898 0.0595,-0.94704 0.14048,-1.89213 0.23828,-2.83594 0.0828,-0.75987 0.20194,-1.51605 0.33008,-2.26953 0.17465,-2.28303 0.30085,-4.56932 0.41797,-6.85547 0.15708,-3.50738 0.33886,-7.01281 0.50976,-10.51953 0.18299,-3.80221 0.42147,-7.60144 0.62891,-11.40234 0.22236,-3.81131 0.40218,-7.62485 0.55664,-11.43946 0.15184,-3.1998 0.2258,-6.4014 0.23828,-9.60351 -7.54256,-7.85947 -15.91419,-17.22878 -18.66797,-22.73633 z m 54.9668,38.8711 c -0.011,0.10459 -0.0222,0.20985 -0.0332,0.31445 -0.11716,2.02578 -0.23869,4.05073 -0.36133,6.07617 -0.1476,2.3349 -0.28683,4.67066 -0.39453,7.00781 -0.11612,2.4977 -0.24363,4.9952 -0.40821,7.49024 -0.17771,2.62746 -0.37299,5.25473 -0.61718,7.87695 -0.22298,2.41355 -0.45627,4.82591 -0.69141,7.23828 -0.20465,2.25483 -0.40666,4.51061 -0.68555,6.75781 -0.24512,2.06312 -0.52149,4.12388 -0.88476,6.16993 0.0439,0.57801 0.0707,1.15515 0.0859,1.73437 l 17.85938,-1.80664 -10.79883,-45.89062 c 0,0 -1.16889,-1.11125 -3.07031,-2.96875 z" />
    <path
       id="path83"
       style="fill:#ffffff"
       d="m 368.30018,462.94922 c 0,0 -26.65625,35.42958 -30.19922,40.32226 -3.54298,4.89269 -10.62891,43.18963 -10.62891,47.57618 0,4.38654 31.04297,27.66992 31.04297,27.66992 l 21.35938,-6.87891 c -0.0516,-0.68829 -0.10253,-1.3762 -0.1543,-2.06445 -0.45701,-5.88515 -0.96165,-11.76561 -1.44727,-17.64844 -0.52022,-6.22238 -1.05499,-12.44377 -1.55273,-18.66797 -0.26545,-3.58147 -0.50697,-7.16533 -0.69141,-10.75195 -0.15601,-0.82276 -0.30882,-1.64507 -0.44922,-2.4707 -0.14804,-0.88322 -0.29071,-1.76812 -0.41992,-2.6543 -0.12118,-0.80144 -0.2367,-1.6028 -0.34375,-2.40625 -0.10139,-0.73302 -0.19923,-1.46732 -0.30859,-2.19922 -0.0971,-0.77421 -0.1913,-1.54938 -0.28321,-2.32422 -0.0903,-0.77692 -0.17499,-1.55308 -0.24609,-2.33203 -0.074,-0.77456 -0.13665,-1.55182 -0.18945,-2.32812 -0.0638,-0.85724 -0.12326,-1.71335 -0.16016,-2.57227 -0.0288,-0.73747 -0.0565,-1.47505 -0.0742,-2.21289 -0.0124,-0.38146 -0.0265,-0.76274 -0.0234,-1.14453 -0.14826,-0.8575 -0.29903,-1.71527 -0.43946,-2.57422 -0.0217,-0.0659 -0.0447,-0.13203 -0.0684,-0.19727 -0.1323,-0.36444 -0.16407,-0.70475 -0.12109,-1.00976 -0.006,-0.043 -0.0132,-0.086 -0.0195,-0.12891 -0.2342,-1.46869 -0.46727,-2.9384 -0.68164,-4.41015 -0.24919,-1.67026 -0.49429,-3.3399 -0.71875,-5.01368 -0.24694,-1.80791 -0.49442,-3.6161 -0.71289,-5.42773 -0.21856,-1.81737 -0.42374,-3.63708 -0.60157,-5.45899 -0.1672,-1.72852 -0.31662,-3.45707 -0.46289,-5.1875 -0.0249,-0.31567 -0.0494,-0.63145 -0.0742,-0.94726 -0.68438,-3.5036 -1.15451,-5.83238 -1.33008,-6.55664 z" />
    <path
       id="path84"
       style="fill:#ffffff"
       d="m 430.474,470.27344 -24.8125,19.56445 c -0.46988,2.44347 -8.23331,12.88515 -17.4707,24.64258 0.0264,0.99833 0.0528,1.99578 0.0762,2.99414 0.0771,3.23173 0.10813,6.46331 0.16993,9.69531 0.058,3.53934 0.16759,7.0779 0.29687,10.61524 0.13193,3.52391 0.33072,7.04377 0.56055,10.5625 0.22082,3.31343 0.4679,6.62456 0.72265,9.93554 0.25228,2.98761 0.49063,5.97638 0.73243,8.96485 0.15737,1.84171 0.31557,3.68416 0.48046,5.52539 l 2.26172,0.0976 c 0,0 32.92787,-19.80437 35.79102,-27.43945 2.86316,-7.63509 15.98437,-36.98336 15.98437,-43.66406 0,-6.6807 -14.79294,-31.49414 -14.79297,-31.49414 z m -54.04101,58.9375 c -10.66567,13.19516 -20.16211,24.57226 -20.16211,24.57226 l 15.27148,18.13282 8.38086,0.36523 c -0.0676,-0.90267 -0.13523,-1.80442 -0.20312,-2.70703 -0.45701,-5.88515 -0.96165,-11.76561 -1.44727,-17.64844 -0.52022,-6.22238 -1.05499,-12.44377 -1.55273,-18.66797 -0.0999,-1.34832 -0.19569,-2.69788 -0.28711,-4.04687 z" />
    <path
       style="fill:#ffffff"
       d="m 292.20816,424.58245 c -0.1193,3.93685 5.72632,169.64211 5.72632,169.64211 l 14.19649,21.35439 44.1913,-32.50614 8.09824,-72.88411 -8.09824,-72.8841 z"
       id="path85" />
    <path
       id="path161"
       style="fill:#ffffff"
       d="m 612.40565,525.99805 c 2.66441,2.20055 5.52379,4.14775 8.4082,6.04492 4.67832,3.07707 4.92204,3.16125 9.9082,6.19336 6.20503,3.57135 8.52079,4.9339 15.62695,8.82812 1.73092,0.94855 3.48975,1.84411 5.23829,2.75977 1.46495,0.76716 2.92946,1.5324 4.39648,2.29492 0.0417,-0.86086 0.0843,-1.72123 0.12695,-2.58203 -0.38549,-0.0835 -0.76408,-0.1943 -1.14648,-0.29102 -0.62158,-0.20927 -1.25086,-0.39928 -1.86524,-0.6289 -2.01175,-0.75192 -4.55134,-1.84665 -6.42968,-2.73633 -1.56897,-0.74315 -3.09594,-1.57366 -4.66602,-2.31445 -0.15726,-0.0742 -0.35453,-0.0394 -0.50586,-0.125 -1.62961,-0.92203 -3.21253,-1.92584 -4.81836,-2.88868 -3.14209,-2.11558 -4.16899,-2.68457 -6.93945,-4.95898 -0.66008,-0.54189 -1.28565,-1.12413 -1.9043,-1.71289 -0.44449,-0.42301 -1.27397,-1.293 -1.69922,-1.86328 -0.0842,-0.11291 -0.14038,-0.24333 -0.21093,-0.36524 z m 53.96679,28.53515 c -0.087,0.91728 -0.17497,1.83289 -0.26367,2.75 0.40142,0.19292 0.78674,0.37345 1.12305,0.52149 0.0288,0.0127 1.32773,0.64024 1.625,0.43554 0.83579,-0.57554 0.69175,-0.93799 0.69726,-1.71289 -0.26585,-0.39412 -0.6203,-0.71142 -0.9414,-1.05859 z" />
    <path
       id="path162"
       style="fill:#ffffff"
       d="m 652.47596,523.91797 c -2.30312,1.12896 -1.08182,0.55623 -3.67578,1.70508 -1.63474,0.72159 -2.83696,1.21624 -4.41602,2.05468 -2.38805,1.26798 -4.54163,2.74066 -6.33203,4.78516 -0.31198,0.38478 -0.63461,0.76083 -0.93555,1.1543 -0.86948,1.13684 -1.57276,2.41187 -2.5664,3.44922 l 13.05664,7.14062 c -0.0144,-0.13173 -0.0414,-0.26398 -0.043,-0.39648 -0.0155,-1.25927 0.40862,-2.51194 0.94531,-3.63477 0.19597,-0.41 0.43143,-0.80085 0.64649,-1.20117 0.28648,-0.42047 0.54612,-0.86079 0.85937,-1.26172 1.61194,-2.06309 3.80985,-3.64402 6.11719,-4.84375 0.2955,-0.15365 0.59728,-0.29592 0.90039,-0.43359 0.0978,-1.75115 0.18715,-3.50199 0.26953,-5.25391 z" />
    <path
       id="path163"
       style="fill:#ffffff"
       d="m 603.55408,517.14844 c -2.31178,-0.0184 -4.6154,0.52752 -6.83789,1.16406 -3.11403,0.89187 -6.5552,2.48583 -8.13281,5.58984 -1.97444,3.88477 -0.37013,5.60071 0.99414,9.35157 1.68846,1.78822 3.14862,3.82308 5.06445,5.36523 2.24031,1.80333 5.71308,3.85113 9.22071,5.75391 -2.72541,-1.51274 -5.39508,-3.21986 -6.90039,-4.84375 -1.01035,-1.08994 -1.35132,-2.64717 -2.02735,-3.97071 -0.0398,-1.30942 -0.32607,-2.63415 -0.11914,-3.92773 0.68083,-4.25615 4.13165,-7.57948 7.78516,-9.48242 1.66558,-0.86752 3.43837,-1.54313 5.24804,-2.04492 2.42967,-0.67371 4.94648,-0.97775 7.41993,-1.4668 3.88574,0.45994 7.79965,0.72915 11.6582,1.3789 6.89015,1.16027 13.69071,2.85772 20.36914,4.91407 -1.77056,0.11322 -3.54178,0.22734 -5.3125,0.33789 -4.97577,0.31065 -8.58135,0.57121 -13.5957,0.66992 -2.34215,0.0461 -4.68804,-0.0701 -7.0293,0.01 -3.11387,0.10543 -6.4107,0.54786 -9.51172,0.91015 -1.79093,0.8947 -2.31044,0.98681 -3.74805,2.3086 -0.90354,0.83079 -1.64427,1.90548 -2.33398,2.9082 -0.35105,0.51037 -0.693,1.02807 -1.02539,1.55078 -0.31707,0.49864 -0.61425,1.00918 -0.92187,1.51367 -0.007,0.0122 -1.55335,2.61227 -1.25586,2.84571 3.70892,2.91048 7.85942,5.22113 11.9414,7.58007 0.22132,0.1279 0.48093,-0.17314 0.7207,-0.26172 2.50113,-0.9239 0.63167,-0.26152 3.80079,-1.34765 3.39722,-0.96391 4.10952,-1.23469 7.86718,-1.95508 1.94073,-0.37206 3.89703,-0.6644 5.84766,-0.98047 1.23024,-0.19933 2.45868,-0.40331 3.68945,-0.59961 l 5.42578,3.38281 c 0.0356,-0.0879 0.0569,-0.18347 0.10743,-0.26367 0.66513,-1.05534 1.89123,-1.75012 2.96875,-2.27148 2.63371,-1.27433 3.63866,-1.42748 6.6289,-2.33203 0.6893,-0.16532 1.38104,-0.31995 2.07422,-0.46289 0.84734,-0.0661 1.78915,-0.14008 2.85547,-0.22657 0.071,-0.003 0.14187,-0.005 0.21289,-0.008 0.004,-0.0692 0.008,-0.13979 0.0117,-0.20898 -0.1557,0.0133 -0.31229,0.0273 -0.4707,0.041 -0.25617,0.0157 -0.50557,0.03 -0.74805,0.0449 0.40824,-0.0726 0.81734,-0.14156 1.22656,-0.20703 0.0741,-1.28879 0.14784,-2.57822 0.21875,-3.86718 -3.88616,0.19648 -7.774,0.35895 -11.66406,0.46679 -2.61422,0.0862 -6.89532,0.19868 -9.63281,0.38086 -1.56703,0.10428 -3.35272,0.27477 -4.92383,0.58203 -0.56115,0.10975 -0.99746,0.26786 -1.51758,0.44336 l 4.98633,3.10938 c -1.3894,0.0192 -2.77863,0.0332 -4.16797,0.0547 -2.35827,0.0364 -4.71569,0.0965 -7.07422,0.10547 -3.32535,0.0126 -4.9608,-0.0182 -7.07226,-0.0859 0.97272,-1.8622 2.40416,-3.5024 4.06836,-4.76954 0.53456,-0.40701 1.11478,-0.75137 1.67187,-1.12695 0.81178,-0.48982 1.5673,-1.0879 2.43555,-1.46875 1.2175,-0.53406 2.51034,-0.88241 3.78515,-1.25976 1.66754,-0.49359 3.32841,-1.02808 5.03711,-1.35157 2.06353,-0.39066 4.16009,-0.59838 6.25196,-0.78515 5.00318,-0.44671 8.11319,-0.38021 13.11523,-0.42969 1.41103,0.0177 2.82095,0.0555 4.23047,0.11133 0.25853,0.0954 0.51764,0.19189 0.77734,0.28906 10e-4,-0.0283 0.003,-0.0576 0.004,-0.0859 -0.17114,-0.0643 -0.34215,-0.12759 -0.51367,-0.1914 0.1741,0.007 0.34743,0.0157 0.52148,0.0234 0.0582,-1.20284 0.11408,-2.40623 0.16602,-3.60937 -1.30925,0.0399 -2.61885,0.0896 -3.92774,0.15039 -1.81809,0.0844 -3.63561,0.19292 -5.45312,0.28906 -0.14241,0.009 -0.28338,0.0163 -0.42578,0.0254 -2.79464,-0.87264 -5.59709,-1.66879 -8.36524,-2.375 -4.15225,-1.0593 -8.34244,-1.98669 -12.56836,-2.69726 -3.85932,-0.64893 -7.77365,-0.91804 -11.66015,-1.37696 -3.8238,-0.43639 -7.62221,-1.27995 -11.47071,-1.31054 z m 64.78516,7.20117 c -0.0873,1.49786 -0.17719,2.99647 -0.26758,4.49414 1.75285,0.17369 3.5032,0.36623 5.25195,0.57422 2.4575,0.29228 4.98942,0.64014 7.44532,0.96875 2.10616,0.28974 4.21335,0.59229 6.31054,0.94726 0.0814,0.16869 0.16273,0.34101 0.2461,0.52149 -0.0256,-0.0138 -0.0525,-0.0273 -0.0781,-0.041 -0.18594,-0.0997 -0.38913,0.16807 -0.5957,0.21094 -0.41639,0.0864 -0.84107,0.12829 -1.26367,0.17578 -2.49158,0.27999 -5.0014,0.37349 -7.5,0.56445 -2.86352,0.18692 -5.72574,0.37505 -8.58985,0.55665 -0.4809,-0.2312 -0.96677,-0.46178 -1.45898,-0.69141 -0.001,0.0239 -0.003,0.0483 -0.004,0.0723 0.45075,0.20771 0.89809,0.41665 1.33985,0.62696 -0.46017,0.0292 -0.92073,0.0588 -1.38086,0.0879 -0.0644,1.13183 -0.1236,2.26406 -0.17578,3.39648 -10e-4,0.0305 -0.002,0.0613 -0.004,0.0918 0.52334,-0.0169 1.04641,-0.0301 1.57031,-0.0391 -0.53513,0.0647 -1.06013,0.12599 -1.57812,0.18359 -0.0123,0.26289 -0.0245,0.52619 -0.0371,0.78906 3.56697,-0.0351 6.86729,0.0204 10.23828,0.17578 0.55303,0.32214 1.10708,0.64229 1.66406,0.95704 2.06476,1.72745 4.27812,3.28393 6.09766,5.28515 0.59399,0.65329 1.10995,1.35111 1.50586,2.13867 0.10168,0.20226 0.16107,0.4234 0.24219,0.63477 l 3.5332,1.54102 c -0.0403,1.18768 -0.16165,2.37154 -0.39063,3.54492 -0.25013,1.28173 -0.74057,2.50563 -1.11133,3.75781 -0.66056,1.10986 -1.16006,2.33222 -1.98242,3.32812 -1.9829,2.40136 -4.7043,4.08784 -7.66015,5.0254 -2.15746,0.68433 -4.39376,1.28179 -6.65625,1.3457 -2.64164,0.0746 -5.19419,-0.11321 -7.70703,-0.46094 -0.008,0.0726 -0.017,0.14613 -0.0254,0.21875 2.68263,0.49521 5.59046,0.94253 9.3457,1.40625 5.54945,0.68529 11.06473,1.62364 16.4668,-0.41797 1.4692,-0.55526 2.77563,-1.56833 3.85742,-2.70703 0.94057,-0.99005 1.38137,-2.35525 2.07226,-3.5332 0.36692,-1.30961 0.83078,-2.59648 1.09961,-3.92969 0.2707,-1.34252 0.4297,-2.75085 0.51758,-4.16211 l 0.97266,0.42383 c -0.31225,-0.36606 -0.6017,-0.75119 -0.93555,-1.09766 0.051,-1.08308 0.0638,-2.16341 0.0586,-3.21093 -0.0135,-2.71933 -0.23332,-5.43021 -0.60742,-8.1211 0.0126,-0.007 0.0246,-0.0127 0.0371,-0.0195 0.19243,0.0788 0.38987,0.16241 0.58984,0.25 -0.17022,-0.092 -0.346,-0.18677 -0.52734,-0.28516 0.45751,-0.26729 0.86667,-0.69768 1.32422,-0.96484 -0.58131,-0.33663 -1.1613,-0.67667 -1.74024,-1.01758 -0.15715,-0.77922 -0.68614,-3.45081 -0.89843,-4.24219 -0.11818,-0.44055 -0.0601,-1.037 -0.4336,-1.29882 -3.97663,-2.78755 -8.20993,-5.1929 -12.3789,-7.6836 -0.24666,-0.14737 -0.54949,-0.17077 -0.83399,-0.21093 -0.1947,-0.0275 -0.39323,0.007 -0.58984,0.01 -0.62515,0.0507 -1.07248,0.0938 -1.7207,0.11914 -2.73613,0.1069 -5.47608,-0.0418 -8.20899,-0.16015 -2.12431,-0.0688 -2.96426,-0.10686 -4.44531,-0.12891 z m 25.28906,8.3125 c 0.009,0.002 0.018,0.006 0.0273,0.008 0.27129,0.0887 0.56612,0.12496 0.81445,0.26563 0.16825,0.0953 0.54338,0.43559 0.5664,0.49804 v 0.002 h 0.002 v 0.002 h -0.002 v 0.002 0.002 h -0.002 -0.002 -0.002 -0.002 c -0.008,-9.6e-4 -0.0195,-0.007 -0.0391,-0.0176 -0.45612,-0.24995 -0.90943,-0.50398 -1.36133,-0.76172 z m -89.71289,4.80664 h 0.002 0.002 0.002 c 0.0127,0.004 0.0466,0.0206 0.10547,0.0527 0.55275,0.30224 1.10545,0.60402 1.6582,0.90625 -0.0175,-0.005 -0.0346,-0.009 -0.0508,-0.0137 -0.48801,-0.13988 -1.64106,-0.86409 -1.7168,-0.9414 v -0.002 h -0.002 z m 74.6875,0.58398 c 1.99278,0.10083 4.02012,0.23723 6.15039,0.41016 1.68853,0.13706 3.37592,0.30733 5.0586,0.50586 0.40042,1.68701 0.69895,3.417 0.86523,5.10742 0.037,0.37607 0.0705,0.75362 0.0977,1.13086 -4.53417,-2.91307 -7.15188,-4.30496 -12.17188,-7.1543 z m -72.69141,7.36524 c 2.05726,1.06989 4.25347,2.23438 5.76563,2.93359 3.76821,1.7424 7.60091,3.35016 11.4707,4.85352 11.97564,4.65236 14.59357,5.14268 26.97852,8.80078 1.91304,0.42723 3.60647,0.81563 5.16211,1.17187 0.004,-0.0281 0.009,-0.0578 0.0137,-0.0859 -1.78637,-0.42471 -3.58531,-0.86031 -5.41602,-1.26953 -12.38169,-3.65893 -15.00411,-4.14991 -26.97656,-8.80274 -3.86947,-1.50378 -7.70096,-3.11251 -11.46875,-4.85547 -1.27708,-0.59077 -3.45739,-1.681 -5.5293,-2.74609 z" />
    <path
       style="fill:#ffffff"
       d="m 519.55229,139.52581 -0.75921,8.18259 c 0,0 6.15803,1.181 6.24239,0.5905 0.0844,-0.5905 1.26535,-8.26695 1.26535,-8.26695 z"
       id="path207" />
  </g>
</svg>
