<?xml version="1.0" encoding="UTF-8" standalone="no"?>
<!-- Created with Inkscape (http://www.inkscape.org/) -->

<svg
   width="11in"
   height="8.5in"
   viewBox="0 0 1056 816"
   version="1.1"
   id="svg1"
   inkscape:version="1.4.3 (0d15f75, 2025-12-25)"
   sodipodi:docname="logo.svg"
   xmlns:inkscape="http://www.inkscape.org/namespaces/inkscape"
   xmlns:sodipodi="http://sodipodi.sourceforge.net/DTD/sodipodi-0.dtd"
   xmlns="http://www.w3.org/2000/svg"
   xmlns:svg="http://www.w3.org/2000/svg">
  <sodipodi:namedview
     id="namedview1"
     pagecolor="#505050"
     bordercolor="#eeeeee"
     borderopacity="1"
     inkscape:showpageshadow="0"
     inkscape:pageopacity="0"
     inkscape:pagecheckerboard="0"
     inkscape:deskcolor="#505050"
     inkscape:document-units="in"
     inkscape:zoom="0.52389706"
     inkscape:cx="496.2807"
     inkscape:cy="472.42105"
     inkscape:window-width="1920"
     inkscape:window-height="1057"
     inkscape:window-x="-8"
     inkscape:window-y="-8"
     inkscape:window-maximized="1"
     inkscape:current-layer="layer1" />
  <defs
     id="defs1" />
  <g
     inkscape:label="Layer 1"
     inkscape:groupmode="layer"
     id="layer1">
    <path
       id="path1"
       style="fill:#000000;stroke-width:5.99649"
       d="m 528.02346,6.1394299 -24.38433,0.440024 -24.38433,0.440024 0.49593,14.2729571 c 0.27238,7.848972 0.77118,14.717726 1.10936,15.267656 0.56428,0.913219 43.68041,-0.06536 44.79598,-1.016393 0.26846,-0.229127 0.91214,-6.936281 1.42848,-14.908212 z M 522.7864,43.535463 c -1.30901,0.01214 -10.76889,0.61776 -21.02206,1.344829 l -18.64227,1.323203 v 5.441458 5.438345 l 9.91604,-0.972995 c 5.45394,-0.53489 14.91385,-1.446769 21.02222,-2.026632 11.04597,-1.048909 11.10587,-1.078479 11.10587,-5.813299 0,-3.184027 -0.78782,-4.752894 -2.3798,-4.734909 z m 3.4273,14.601422 -20.34345,1.158951 c -11.1886,0.637428 -20.88428,1.493669 -21.5458,1.902635 -0.66139,0.408956 -1.20238,2.844182 -1.20238,5.410508 0,5.323274 -0.77467,5.15544 14.56114,3.132812 6.38969,-0.842748 15.18714,-1.78863 19.55019,-2.104051 7.35203,-0.531279 7.97137,-0.899481 8.45655,-5.035506 z m -4.9922,12.720499 c -3.50051,-0.158293 -9.82773,0.611517 -21.44039,2.203242 -16.94928,2.323216 -16.65904,2.191166 -16.65904,7.684935 0,4.198659 0.55415,4.804961 4.36303,4.76901 2.39976,-0.02417 7.21895,-0.689553 10.70947,-1.484305 3.4905,-0.794791 10.63005,-1.915864 15.86576,-2.494484 10.92301,-1.207289 12.36949,-2.116252 11.63583,-7.300745 -0.30143,-2.13092 -0.97416,-3.219243 -4.47466,-3.377653 z m 0.39639,13.969249 c -2.53148,0.0361 -7.94187,0.927837 -22.23366,3.287827 -16.18866,2.673167 -16.26231,2.704587 -16.26231,7.201568 0,5.434532 -0.24773,5.415312 23.32123,1.781772 16.46016,-2.537504 17.83571,-3.02241 18.73212,-6.594155 0.54567,-2.174198 0.19238,-4.334161 -0.81171,-4.954963 -0.74261,-0.458733 -1.22673,-0.744271 -2.74567,-0.722049 z m 1.96465,15.670527 c -8.63851,0.20745 -39.72378,4.65287 -40.66207,6.0922 -0.54751,0.83982 -0.64717,2.87556 -0.21054,4.52418 0.90579,3.46419 1.4867,3.48565 24.1859,0.87389 15.92913,-1.83284 16.69639,-2.09544 18.14332,-6.20993 0.83092,-2.36296 1.15489,-4.65228 0.71885,-5.08821 -0.16409,-0.16417 -0.94117,-0.22186 -2.1753,-0.19199 z m -404.46466,6.18205 c -0.22417,-0.008 -0.37219,0.0242 -0.43384,0.0837 -1.16848,1.1685 17.20925,47.5336 24.92347,62.88042 3.28972,6.5446 7.30974,13.06249 8.93376,14.48677 2.12314,1.86196 8.97112,3.13325 24.37187,4.52424 11.78032,1.06403 21.88123,2.21785 22.44754,2.56265 1.5042,0.91563 52.72607,4.9789 89.40587,7.09315 17.45233,1.00598 59.57586,2.28702 93.60783,2.84467 34.03199,0.55709 66.51711,1.01327 72.18907,1.01327 h 10.31272 l 0.46472,-11.45617 c 0.5199,-12.80402 2.02874,-11.25943 -13.89183,-14.20478 -5.86404,-1.08491 -7.83055,-2.42865 -11.44686,-7.81513 l -4.36618,-6.50436 -22.66444,-1.10623 C 367.0302,158.83665 289.13909,149.5437 243.5491,140.86818 c -33.19889,-6.31749 -87.61513,-21.07309 -111.56523,-30.25029 -5.96922,-2.28732 -11.29715,-3.90085 -12.86612,-3.93859 z m 767.75893,0.0419 c -1.90944,0.0538 -10.39791,2.66737 -20.1234,6.23166 -37.49929,13.74303 -87.18387,26.16647 -132.15968,33.04542 -53.70053,8.21336 -100.63083,13.26778 -139.9408,15.06932 l -24.12087,1.10316 -1.53692,4.41264 c -2.08533,5.98201 -7.10083,8.92867 -19.28369,11.33841 l -10.26631,2.03283 -0.46463,11.52128 -0.46779,11.52435 50.44503,-0.89871 c 92.59306,-1.64968 184.09476,-6.46679 225.19121,-11.85592 13.21403,-1.7328 26.64873,-3.15138 29.85354,-3.15138 3.20483,0 7.23332,-0.75341 8.95234,-1.67339 3.57385,-1.91272 10.47066,-16.10708 21.15848,-43.54398 4.07916,-10.47142 8.92723,-22.42969 10.77132,-26.57208 1.84425,-4.14238 2.90959,-7.97334 2.36755,-8.51543 -0.0484,-0.0538 -0.17755,-0.0738 -0.37493,-0.0684 z m -362.50403,8.7417 -17.84901,1.02874 c -22.15924,1.27643 -23.40185,1.6175 -23.40185,6.4517 v 3.86103 h 20.62536 20.6255 v -5.67057 z m 0.13309,16.89455 -20.29383,0.26341 c -11.16259,0.14565 -20.92088,0.32386 -21.68223,0.39637 -0.76121,0.0724 -0.43649,1.27268 0.71901,2.66495 1.55446,1.8731 3.66609,2.28098 8.12487,1.56799 10.46747,-1.6738 7.16692,1.95214 -5.47542,6.0147 -1.5271,0.49054 -2.77652,1.92714 -2.77652,3.19177 0,1.92206 3.05586,2.16726 18.64214,1.50602 20.72033,-0.87911 23.28645,-1.32806 21.75346,-3.80844 -0.6523,-1.05537 -3.42533,-1.30796 -7.24178,-0.66315 -3.98174,0.67269 -6.18203,0.43836 -6.18203,-0.65378 0,-1.99055 6.2082,-3.80342 10.49546,-3.0647 2.18137,0.37597 3.11378,-0.55467 3.4521,-3.44896 z m -22.43815,5.55298 c 0.9241,0 1.6794,0.71401 1.6794,1.58662 0,0.87262 -0.3152,1.58656 -0.70025,1.58656 -0.38506,0 -1.14052,-0.71394 -1.67954,-1.58656 -0.53904,-0.87261 -0.22355,-1.58662 0.70039,-1.58662 z m -42.39133,18.76928 c -7.45662,0.25724 -9.27413,0.83177 -9.45441,1.86239 -0.87166,4.98382 2.65765,6.99144 15.73872,8.94924 15.85524,2.37298 75.44785,1.74167 84.0171,-0.88934 5.25429,-1.61323 9.19037,-6.98237 6.37409,-8.69515 -0.5726,-0.34842 -24.59108,-0.88089 -53.37626,-1.18372 -22.74395,-0.23935 -35.84239,-0.32729 -43.29924,-0.0419 z m 22.88441,19.79194 c -1.49155,0.57206 -2.50079,13.07612 -3.95406,48.92967 -5.18448,127.91419 -7.40486,191.34056 -9.79516,279.8008 -0.9432,34.90467 -2.31065,74.17239 -3.03988,87.26159 -0.72919,13.08921 -1.00059,24.14951 -0.59486,24.57947 0.40295,0.42996 8.24373,-7.24524 17.42133,-17.05565 9.17752,-9.81039 17.51189,-17.83633 18.52141,-17.83655 1.37844,-2.8e-4 1.72356,27.66883 1.39446,110.57363 v 0 c -0.24183,60.81567 -0.0242,110.15941 0.48035,109.65336 0.50605,-0.5062 2.55131,-7.9625 4.54272,-16.56922 4.02061,-17.37569 28.30754,-104.63823 32.06621,-115.21249 1.31687,-3.70475 6.67266,-21.72981 11.90246,-40.05476 5.22981,-18.32497 10.54567,-36.01187 11.81248,-39.30181 3.88102,-10.07956 3.033,-11.9868 -2.85395,-6.42996 -2.83609,2.67694 -9.79717,8.20009 -15.4692,12.27423 l -10.31261,7.40609 -1.11873,-44.0925 c -0.61495,-24.25037 -1.99684,-96.20834 -3.07083,-159.90924 -1.07411,-63.70092 -2.35544,-139.73746 -2.84773,-168.97003 l -0.89565,-53.1502 -21.09331,-1.33248 c -11.60164,-0.73217 -21.99637,-0.99328 -23.09832,-0.56364 z m 338.49796,23.64983 c -0.67136,-0.0106 -1.58199,0.14141 -2.77348,0.44912 -2.39961,0.62036 -10.43163,1.70535 -17.84885,2.41088 -80.50019,7.65749 -109.54218,9.22706 -195.60716,10.57609 -35.59381,0.55767 -64.93133,1.43713 -65.19524,1.95222 -0.26376,0.51508 -0.15502,6.1121 0.24168,12.43852 l 0.72204,11.50271 85.09855,-0.10542 c 87.86447,-0.10678 168.84727,-1.85728 173.3363,-3.74955 3.8172,-1.60914 23.53389,-30.03002 23.58773,-33.99983 0.0151,-0.98082 -0.44237,-1.45573 -1.56173,-1.47499 z m -635.88747,1.27053 c -2.52458,0.17926 15.57595,26.95322 21.7627,32.1591 l 4.88366,4.10895 38.38763,0.14867 c 21.11347,0.0814 38.72667,0.4845 39.13755,0.89557 0.41087,0.41135 39.80419,0.7468 87.5435,0.7468 h 86.79984 l 0.99163,-4.95807 c 0.5457,-2.72684 0.9916,-8.32483 0.9916,-12.43849 v -7.47733 l -65.44608,-1.09997 c -72.66967,-1.21987 -131.42747,-4.11482 -180.47269,-8.89357 -17.88862,-1.74299 -33.43499,-3.17971 -34.54827,-3.1917 -0.0106,-1.3e-4 -0.021,-6.8e-4 -0.0313,0 z m 58.34064,49.22092 c -1.60491,0.0757 -1.52111,0.78782 -0.80257,2.50385 10.51468,25.11098 24.53535,97.12646 29.43217,151.17371 1.92426,21.23868 1.63473,22.29753 -6.08289,22.35147 -6.82325,0.048 -20.63475,7.96438 -27.80842,15.94324 -3.86996,4.30432 -8.81095,12.26435 -10.98207,17.69088 l -3.94783,9.86653 -10.11441,0.1272 c -15.31634,0.19312 -25.9742,6.19456 -39.5001,22.23993 -14.32058,16.98806 -18.391,20.62512 -27.66276,24.72511 -9.42272,4.16664 -22.38941,4.42386 -32.69521,0.64762 -12.24369,-4.48628 -12.59032,-4.52935 -12.59032,-1.58969 0,6.25385 9.77619,22.95712 17.5019,29.90322 12.71827,11.43481 20.55155,14.54822 36.4416,14.47746 11.02847,-0.0482 16.15521,-0.99757 28.13068,-5.19663 9.98467,-3.50099 16.04222,-4.80812 19.03889,-4.10895 2.41725,0.56365 10.78429,5.32416 18.59576,10.57919 17.17448,11.55379 26.76374,15.93556 44.75872,20.44882 l 13.68729,3.43341 -0.94514,17.59488 c -1.45874,27.16159 -9.71628,78.45393 -14.47748,89.92954 -0.94337,2.27364 4.35545,2.54938 53.76375,2.80127 51.43705,0.26273 54.80829,0.10755 54.80496,-2.52238 -0.002,-1.541 -1.09049,-13.51073 -2.42015,-26.59989 -4.86401,-47.8813 -7.27431,-91.7199 -5.11606,-93.09025 3.02812,-1.92269 7.57385,-1.55006 8.18696,0.67239 0.99258,3.59788 7.47694,76.14565 8.68588,97.17757 0.60364,10.50203 1.42999,18.31816 1.91504,18.38197 0.0362,-1.4e-4 0.0759,-0.0422 0.1086,-0.13583 0.46106,-1.30892 2.84386,-8.4485 5.29581,-15.86573 2.45193,-7.41723 7.96055,-22.34609 12.24015,-33.17545 4.27966,-10.82944 11.02073,-29.39227 14.97949,-41.25094 3.95877,-11.85864 11.67731,-33.34151 17.15482,-47.73973 15.08144,-39.64283 22.73896,-64.46779 23.73665,-76.9488 0.48811,-6.10834 1.62212,-31.81083 2.51931,-57.11665 2.744,-77.39413 4.72759,-121.8304 5.76372,-129.1353 1.15811,-8.16442 -1.6961,-7.96043 -3.49543,0.24455 -0.61935,2.82596 -3.46081,10.49249 -6.3153,17.03706 -2.85448,6.54465 -15.28433,40.1006 -27.62251,74.56891 -26.44681,73.88273 -25.80806,72.15625 -32.17458,86.87107 -4.96259,11.46986 -4.98819,11.49549 -8.25823,8.50617 -5.33956,-4.88114 -15.37966,-9.27077 -25.96776,-11.35391 -5.45363,-1.07286 -10.32353,-2.60692 -10.82092,-3.41177 -0.49741,-0.80482 -1.55458,-9.09774 -2.34886,-18.4284 -2.08359,-24.47624 -7.1193,-63.42351 -14.19551,-109.78031 -3.39662,-22.25171 -7.27382,-48.3052 -8.61769,-57.89752 -1.34387,-9.59255 -2.78663,-18.51703 -3.20415,-19.83234 -0.63816,-2.01039 -6.00827,-2.46312 -33.6992,-2.83851 -18.11717,-0.24521 -36.08901,-0.88108 -39.93703,-1.40994 -2.40545,-0.3304 -3.97649,-0.51333 -4.93946,-0.46775 z m 516.22506,0.57328 c -0.30627,-0.0106 -0.64792,-0.008 -1.02557,0.003 -1.00788,0.0308 -2.28286,0.13838 -3.88904,0.30703 -4.14495,0.43476 -21.4584,0.93685 -38.47451,1.11555 l -30.93811,0.32557 -1.88404,11.10605 c -1.0369,6.10826 -3.01667,19.3165 -4.39721,29.35161 -1.38053,10.03506 -3.54073,24.67119 -4.803,32.52473 -1.26242,7.85351 -3.73523,23.20361 -5.49417,34.11134 -1.7588,10.90768 -5.02563,34.82528 -7.26038,53.15018 -2.23491,18.32493 -4.94487,38.31575 -6.02096,44.42404 l -1.95541,11.10603 -7.17674,0.0714 c -7.67207,0.0773 -15.52304,2.65879 -22.33592,7.34409 -2.31627,1.59285 -5.17201,2.88441 -6.34627,2.86639 -1.34484,-0.018 -9.13971,-18.95372 -21.06547,-51.16701 -26.35018,-71.1752 -34.22323,-92.1941 -44.14518,-117.8743 -4.74175,-12.27261 -9.10161,-24.23142 -9.68993,-26.57509 -1.40294,-5.58938 -4.04997,-5.50299 -3.3901,0.10209 0.59014,5.01914 3.46905,86.12573 5.44775,153.50097 l 1.35104,46.01066 12.90943,32.3264 c 7.10052,17.77979 15.41279,39.55544 18.47182,48.39047 3.05902,8.83501 14.63979,40.33866 25.73538,70.00757 l 20.17299,53.94351 1.13417,-15.07245 c 2.00577,-26.67451 4.26744,-50.53762 7.00629,-73.93368 2.51258,-21.46129 2.88115,-22.84734 6.07357,-22.84734 7.45883,0 7.51024,-5.17984 -0.80867,81.44826 -1.82974,19.05382 -2.94046,35.65334 -2.46663,36.88787 0.71917,1.8746 9.79778,2.24353 55.05279,2.24353 h 54.19145 l -0.92969,-4.36316 c -0.51211,-2.39968 -2.72448,-12.2166 -4.91461,-21.81539 -6.63924,-29.09817 -12.02044,-75.58169 -9.22503,-79.68497 0.72809,-1.06875 6.13348,-2.62592 12.01075,-3.45826 11.7491,-1.66387 28.79365,-9.88209 43.60298,-21.0252 16.34052,-12.29527 21.05535,-12.84256 45.21417,-5.2369 16.13922,5.08017 27.90935,5.12504 38.39072,0.0419 10.72686,-5.16946 21.69388,-14.3155 29.29895,-24.43694 5.75991,-7.66572 10.52555,-18.8818 8.76964,-20.63782 -0.39476,-0.39456 -5.19397,1.33466 -10.66607,3.84247 -7.89847,3.61991 -12.23928,4.56238 -21.05625,4.59237 -13.67562,0.0419 -21.31758,-3.92633 -33.9873,-17.65994 -20.00192,-21.68157 -23.41275,-24.84178 -31.00632,-28.71012 -5.76323,-2.93591 -10.63959,-4.11071 -17.50809,-4.21746 l -9.5195,-0.14565 -6.06738,-11.89935 c -9.21716,-18.07401 -17.67598,-25.31468 -35.99852,-30.80803 l -7.11776,-2.13193 0.39989,-12.44157 c 1.04901,-32.58743 21.87762,-152.49526 27.51715,-158.41566 0.78964,-0.82892 1.43469,-2.75909 1.43469,-4.28867 0,-1.55593 -0.47671,-2.21919 -2.62163,-2.29932 z m -533.7147,61.2474 c -11.30297,0 -20.54734,0.53552 -20.54178,1.18998 0.0264,3.1258 9.70776,37.59329 10.99445,39.14371 1.39241,1.67761 36.33183,1.58102 38.11185,-0.10861 0.72257,-0.68474 -3.9067,-25.30311 -6.5942,-35.06889 l -1.41923,-5.15632 z m 164.28469,0 c -37.66917,0 -48.38357,0.43957 -48.36259,1.98325 0.0136,1.09079 1.42994,7.33785 3.14527,13.88249 1.71531,6.54465 3.13025,14.16089 3.14525,16.92552 0.0136,2.76462 0.39396,5.97738 0.83977,7.13954 0.64651,1.68569 8.22622,2.06152 37.45491,1.86243 20.15443,-0.13748 37.24675,-0.85165 37.98481,-1.58969 1.17953,-1.17954 14.18306,-37.29814 14.18306,-39.39477 0,-0.4455 -21.77572,-0.80877 -48.39048,-0.80877 z m 226.19515,0 c -27.10987,0 -49.29211,0.5853 -49.29211,1.3015 0,1.50978 12.41199,34.79356 14.32567,38.41554 1.11041,2.10246 6.31315,2.36851 38.19546,1.95539 20.3011,-0.26347 37.2428,-0.80754 37.64707,-1.21169 0.40411,-0.40416 2.02074,-8.2791 3.59139,-17.49882 1.57066,-9.2196 3.2986,-18.15822 3.83943,-19.86313 0.96177,-3.03036 -0.12703,-3.09879 -48.30691,-3.09879 z m 141.71322,0 -2.70512,17.05567 c -1.48671,9.38064 -2.69272,18.66208 -2.68682,20.62544 0.0181,3.50202 0.37432,3.56986 18.99255,3.56986 h 18.97997 l 1.8128,-6.74293 c 0.99821,-3.70867 3.52546,-12.64479 5.61502,-19.857 2.08957,-7.21229 3.79906,-13.45914 3.79906,-13.8825 0,-0.42337 -9.85783,-0.76854 -21.90533,-0.76854 z M 282.14732,434.14093 c 9.14107,0.0601 18.769,1.35296 25.46884,3.85805 11.83562,4.42529 24.64914,16.55074 28.68536,27.14212 l 2.87256,7.53628 h 11.73507 c 12.69159,0 18.85553,1.93592 31.04044,9.75493 6.11132,3.92163 8.65056,7.07411 13.33714,16.55675 5.53833,11.20597 5.75339,12.24729 4.94253,24.07749 -1.43328,20.91135 -9.15826,32.23749 -27.29399,40.01138 -9.74613,4.17783 -26.11749,4.28202 -35.05028,0.22293 -13.11589,-5.95778 -20.2154,-20.10079 -16.29956,-32.47211 1.73896,-5.49383 3.36338,-7.22169 9.77353,-10.39949 7.60954,-3.77235 7.77258,-3.78442 15.86576,-1.08147 4.49746,1.50207 9.12992,3.11836 10.29412,3.59148 4.53928,1.84548 0.9269,-6.61083 -4.33519,-10.14848 -10.26439,-6.90063 -25.38363,-4.09488 -34.61641,6.4207 -6.29516,7.16978 -7.82634,14.89386 -5.39188,27.20103 3.49334,17.66021 3.75618,16.89214 -7.75005,22.67064 -8.26048,4.14858 -12.83852,5.33731 -23.0053,5.97137 -18.13097,1.13073 -31.98021,-3.91865 -58.82097,-21.44048 -11.67819,-7.62365 -20.10977,-11.10043 -26.95314,-11.11841 -1.79969,-0.003 -9.60853,2.13258 -17.35314,4.75044 -15.96681,5.39712 -31.15146,6.31385 -39.42574,2.38295 -6.66525,-3.16654 -18.4842,-14.10395 -18.4842,-17.10527 0,-1.88098 2.63942,-2.51745 12.29596,-2.96238 11.2668,-0.51928 13.08595,-1.09729 21.73479,-6.91029 5.19139,-3.4892 14.82984,-12.61594 21.41876,-20.28148 6.58892,-7.66564 14.46141,-15.71278 17.49259,-17.88308 6.98653,-5.00221 16.49691,-7.59029 23.24392,-6.32455 4.53553,0.85092 6.02466,2.46256 10.98514,11.90238 10.36087,19.71674 28.28434,26.79229 45.6264,18.01007 5.55813,-2.81472 13.79264,-15.53489 13.79264,-21.30717 0,-4.88403 -6.95043,-14.09008 -10.6381,-14.09008 -1.75713,0 -2.14375,0.98192 -1.40683,3.56978 2.6422,9.2789 2.68673,12.13848 0.27272,16.80775 -5.97679,11.55783 -23.13226,13.03173 -33.99359,2.91904 -17.07965,-15.90254 -8.3545,-45.16174 17.38105,-58.29106 4.76332,-2.43008 13.418,-3.60175 22.55908,-3.54196 z m 438.03378,3.18864 c 9.03672,-0.1803 18.01083,1.16931 24.99475,4.08735 13.60014,5.68244 26.72813,24.58288 26.67413,38.40001 -0.0301,8.04172 -5.49236,17.81087 -12.68937,22.70167 -7.77991,5.28678 -21.95765,4.42838 -28.08734,-1.70125 -3.70121,-3.70095 -4.15266,-5.34848 -4.01307,-14.57046 0.0862,-5.71835 -0.51498,-10.3964 -1.33546,-10.3964 -3.32521,0 -7.77824,10.44709 -7.78414,18.26105 0,6.40046 0.80975,8.83095 4.18638,12.47262 12.16108,13.11515 37.72464,11.61522 48.76563,-2.86016 2.21647,-2.90602 5.84734,-9.3862 8.0659,-14.40311 l 4.03469,-9.12283 6.73678,0.77162 c 12.85711,1.47107 21.79537,6.92068 33.7116,20.55727 23.15972,26.50357 28.81482,30.0593 49.51535,31.14578 7.12199,0.37359 12.97022,1.05025 13.1511,1.51224 0,0.008 0,0.018 0,0.0231 0,2.94204 -8.86143,11.46717 -16.07023,15.45981 -7.51508,4.16205 -10.01905,4.71026 -21.21414,4.63889 -9.12762,-0.0601 -16.86276,-1.33026 -27.54197,-4.5273 -8.63185,-2.58412 -16.65828,-4.08348 -19.16602,-3.58219 -4.71725,0.94348 -17.5624,8.43366 -32.99576,19.23721 -5.4423,3.80975 -14.36681,8.35153 -19.8321,10.09581 -5.46527,1.74429 -12.79357,3.48785 -16.28394,3.87341 -8.93359,0.98644 -24.70376,-2.60578 -34.5112,-7.86158 l -8.32635,-4.46221 v -19.83215 c 0,-18.52727 -0.25167,-20.16913 -3.84866,-24.9637 -4.76246,-6.34797 -15.44092,-10.70292 -23.17273,-9.44825 -7.71941,1.25273 -16.60942,7.00377 -16.60942,10.74343 0,3.66713 1.08954,3.75175 8.48137,0.66316 13.38629,-5.59309 25.00411,-0.39453 27.64421,12.37031 5.92143,28.63073 -34.46267,43.54715 -61.6657,22.77601 -10.44283,-7.97367 -16.10881,-19.46701 -16.97497,-34.43052 -1.10151,-19.02683 5.79817,-31.39182 23.10437,-41.40274 8.21108,-4.74996 10.33392,-5.26269 21.79066,-5.2927 6.98089,-0.018 13.59941,-0.6163 14.70665,-1.33247 1.1074,-0.7162 3.71768,-4.64302 5.8009,-8.72617 5.07962,-9.95447 17.01566,-22.07916 25.37906,-25.7787 7.23859,-3.20191 16.33898,-4.91394 25.37587,-5.09439 z M 544.61368,765.54578 c -0.79131,0.54452 -1.55915,1.08441 -2.29313,1.6733 0.63535,-0.52528 1.6334,-1.14196 2.29313,-1.6733 z M 401.7322,821.46001 c 0.002,0.0734 0.008,0.14688 0.008,0.22017 0.27715,0.01 0.55336,0.0176 0.83048,0.0236 -0.10512,-0.0303 -0.21362,-0.0656 -0.32523,-0.0989 -0.16932,-0.0538 -0.33969,-0.1001 -0.51133,-0.1456 z" />
  </g>
</svg>
